<svg width="56.000000" height="54.000000" viewBox="0 0 56 54" fill="none" xmlns="http://www.w3.org/2000/svg" xmlns:xlink="http://www.w3.org/1999/xlink">
	<desc>
			Created with Pixso.
	</desc>
	<defs>
		<filter id="filter_3759_50047_dd" x="0.058594" y="0.387695" width="55.681641" height="51.905273" filterUnits="userSpaceOnUse" color-interpolation-filters="sRGB">
			<feFlood flood-opacity="0" result="BackgroundImageFix"/>
			<feBlend mode="normal" in="SourceGraphic" in2="BackgroundImageFix" result="shape"/>
			<feColorMatrix in="SourceAlpha" type="matrix" values="0 0 0 0 0 0 0 0 0 0 0 0 0 0 0 0 0 0 127 0" result="hardAlpha"/>
			<feOffset dx="0" dy="-0.6"/>
			<feGaussianBlur stdDeviation="0"/>
			<feComposite in2="hardAlpha" operator="arithmetic" k2="-1" k3="1"/>
			<feColorMatrix type="matrix" values="0 0 0 0 1 0 0 0 0 1 0 0 0 0 1 0 0 0 1 0"/>
			<feBlend mode="normal" in2="shape" result="effect_innerShadow_1"/>
		</filter>
		<clipPath id="clip3759_50039">
			<rect id="画板 37460" width="54.000000" height="56.000000" transform="translate(0.000000 54.000000) rotate(-90.000000)" fill="white" fill-opacity="0"/>
		</clipPath>
		<linearGradient x1="55.736244" y1="7.227297" x2="7.257483" y2="42.131638" id="paint_linear_3759_50043_0" gradientUnits="userSpaceOnUse">
			<stop stop-color="#0C3682"/>
			<stop offset="1.000000" stop-color="#2B6DDC"/>
		</linearGradient>
		<linearGradient x1="58.499729" y1="12.497072" x2="11.998395" y2="37.997086" id="paint_linear_3759_50049_0" gradientUnits="userSpaceOnUse">
			<stop stop-color="#2165E4"/>
			<stop offset="0.997218" stop-color="#A9DDFF"/>
		</linearGradient>
	</defs>
	<rect id="画板 37460" width="54.000000" height="56.000000" transform="translate(0.000000 54.000000) rotate(-90.000000)" fill="#D4D4D4" fill-opacity="0"/>
	<g clip-path="url(#clip3759_50039)">
		<rect id="画板 39" width="71.500000" height="71.500000" transform="translate(-5.000000 -6.501953)" fill="#FFFFFF" fill-opacity="0"/>
		<path id="合并" d="M22.748 2.36816L0.796875 25.6084C-0.191406 26.6533 -0.1875 28.2988 0.804688 29.3486L22.75 52.584C24.4258 54.3574 27.3809 53.1768 27.3809 50.7324L27.3828 36.5576L52.1602 36.5576C54.1348 36.5576 55.7363 34.957 55.7363 32.9834L55.7363 20.2578C55.7363 18.2832 54.1348 16.6826 52.1602 16.6826L27.3848 16.6826L27.3867 4.25684C27.3867 1.80664 24.4199 0.597656 22.748 2.36816Z" clip-rule="evenodd" fill="url(#paint_linear_3759_50043_0)" fill-opacity="1.000000" fill-rule="evenodd"/>
		<rect id="画板 40" width="71.500000" height="71.500000" transform="translate(-5.000000 -9.181641)" fill="#FFFFFF" fill-opacity="0"/>
		<g filter="url(#filter_3759_50047_dd)">
			<g opacity="0.430000">
				<path id="合并" d="M22.7461 1.22949L0.796875 24.4678C-0.191406 25.5127 -0.1875 27.1582 0.804688 28.208L22.75 51.4414C24.4258 53.2158 27.3809 52.0342 27.3809 49.5898L27.3828 35.501L52.166 35.501C54.1406 35.501 55.7402 33.9004 55.7402 31.9258L55.7402 20.2002C55.7402 18.2266 54.1406 16.626 52.166 16.626L27.3848 16.626L27.3867 3.11816C27.3867 0.667969 24.4199 -0.541016 22.7461 1.22949Z" clip-rule="evenodd" fill="url(#paint_linear_3759_50049_0)" fill-opacity="1.000000" fill-rule="evenodd"/>
			</g>
		</g>
		<path id="RY-" d="M15.68 27.57L18.56 32.56L16.47 32.56L13.8 27.81L11.89 27.81L11.89 32.56L10.04 32.56L10.04 20.79L13.89 20.79C16.33 20.79 18.15 21.65 18.15 24.2C18.15 26.02 17.17 27.11 15.68 27.57ZM24.21 32.56L22.36 32.56L22.36 28.1L18.82 20.79L20.81 20.79L22.17 23.91C22.53 24.79 22.87 25.6 23.27 26.5L23.33 26.5C23.72 25.6 24.1 24.79 24.46 23.91L25.83 20.79L27.76 20.79L24.21 28.1L24.21 32.56ZM13.67 22.27L11.89 22.27L11.89 26.33L13.67 26.33C15.38 26.33 16.31 25.62 16.31 24.2C16.31 22.77 15.38 22.27 13.67 22.27ZM31.45 28.72L27.22 28.72L27.22 27.36L31.45 27.36L31.45 28.72Z" fill="#FFFFFF" fill-opacity="1.000000" fill-rule="evenodd"/>
	</g>
</svg>
