<svg width="50.000000" height="54.000000" viewBox="0 0 50 54" fill="none" xmlns="http://www.w3.org/2000/svg" xmlns:xlink="http://www.w3.org/1999/xlink">
	<desc>
			Created with Pixso.
	</desc>
	<defs>
		<filter id="filter_3759_50359_dd" x="0.115234" y="0.980469" width="49.855469" height="52.843750" filterUnits="userSpaceOnUse" color-interpolation-filters="sRGB">
			<feFlood flood-opacity="0" result="BackgroundImageFix"/>
			<feBlend mode="normal" in="SourceGraphic" in2="BackgroundImageFix" result="shape"/>
			<feColorMatrix in="SourceAlpha" type="matrix" values="0 0 0 0 0 0 0 0 0 0 0 0 0 0 0 0 0 0 127 0" result="hardAlpha"/>
			<feOffset dx="-0.5" dy="0"/>
			<feGaussianBlur stdDeviation="0"/>
			<feComposite in2="hardAlpha" operator="arithmetic" k2="-1" k3="1"/>
			<feColorMatrix type="matrix" values="0 0 0 0 1 0 0 0 0 1 0 0 0 0 1 0 0 0 1 0"/>
			<feBlend mode="normal" in2="shape" result="effect_innerShadow_1"/>
		</filter>
		<clipPath id="clip3759_50349">
			<rect id="画板 37471" width="50.000000" height="54.000000" transform="matrix(-1 0 0 1 50 0)" fill="white" fill-opacity="0"/>
		</clipPath>
		<linearGradient x1="44.947224" y1="53.871094" x2="10.608810" y2="10.260138" id="paint_linear_3759_50352_0" gradientUnits="userSpaceOnUse">
			<stop stop-color="#0C3682"/>
			<stop offset="1.000000" stop-color="#2B6DDC"/>
		</linearGradient>
		<linearGradient x1="8.201509" y1="39.335876" x2="63.573322" y2="-3.933460" id="paint_linear_3759_50360_0" gradientUnits="userSpaceOnUse">
			<stop stop-color="#2165E4"/>
			<stop offset="0.997218" stop-color="#A9DDFF"/>
		</linearGradient>
	</defs>
	<rect id="画板 37471" width="50.000000" height="54.000000" transform="matrix(-1 0 0 1 50 0)" fill="#ADADAD" fill-opacity="0"/>
	<g clip-path="url(#clip3759_50349)">
		<path id="合并" d="M23.2871 53.1504L3.38672 31.7344C2.0625 30.3076 3.16406 28.0068 5.17188 28.0068L15.8398 28.0068L15.8398 24.2432C15.8398 12.498 25.3613 2.97656 37.1074 2.97656C41.9453 2.97656 46.4043 4.5918 49.9785 7.31152C39.1895 8.16211 30.666 17.0645 30.4121 28.0068L47.5293 28.0068C49.5801 28.0068 50.5586 30.3896 49.0859 31.7949L26.627 53.2109C25.6797 54.1143 24.1562 54.0869 23.2871 53.1504Z" clip-rule="evenodd" fill="url(#paint_linear_3759_50352_0)" fill-opacity="1.000000" fill-rule="evenodd"/>
		<g filter="url(#filter_3759_50359_dd)">
			<path id="合并" d="M21.6797 53.085L0.699219 30.0615C-0.619141 28.6133 0.439453 26.2959 2.41797 26.2959L13.5918 26.2979L13.5918 22.2471C13.5918 10.502 23.1133 0.980469 34.8594 0.980469C40.7695 0.980469 46.1172 3.3916 49.9707 7.2832C39.1309 7.44336 30.2539 15.7158 29.1426 26.3008L47.5879 26.3037C49.6367 26.3047 50.627 28.7637 49.1465 30.1719L24.957 53.1885C24.0254 54.0752 22.5391 54.0283 21.6797 53.085Z" clip-rule="evenodd" fill="url(#paint_linear_3759_50360_0)" fill-opacity="1.000000" fill-rule="evenodd"/>
		</g>
		<path id="RZ-" d="M19.19 36L22.07 41L19.98 41L17.31 36.24L15.4 36.24L15.4 41L13.55 41L13.55 29.22L17.4 29.22C19.83 29.22 21.66 30.08 21.66 32.63C21.66 34.45 20.68 35.54 19.19 36ZM31.31 41L23.05 41L23.05 39.87L28.96 30.77L23.6 30.77L23.6 29.22L31.24 29.22L31.24 30.32L25.35 39.43L31.31 39.43L31.31 41ZM17.18 30.71L15.4 30.71L15.4 34.76L17.18 34.76C18.89 34.76 19.82 34.05 19.82 32.63C19.82 31.2 18.89 30.71 17.18 30.71ZM36.43 37.16L32.2 37.16L32.2 35.8L36.43 35.8L36.43 37.16Z" fill="#FFFFFF" fill-opacity="1.000000" fill-rule="evenodd"/>
	</g>
</svg>
