<svg width="60.000000" height="36.000000" viewBox="0 0 60 36" fill="none" xmlns="http://www.w3.org/2000/svg" xmlns:xlink="http://www.w3.org/1999/xlink">
	<desc>
			Created with Pixso.
	</desc>
	<defs>
		<filter id="filter_3744_51627_dd" x="0.347656" y="1.117188" width="57.376953" height="31.813477" filterUnits="userSpaceOnUse" color-interpolation-filters="sRGB">
			<feFlood flood-opacity="0" result="BackgroundImageFix"/>
			<feBlend mode="normal" in="SourceGraphic" in2="BackgroundImageFix" result="shape"/>
			<feColorMatrix in="SourceAlpha" type="matrix" values="0 0 0 0 0 0 0 0 0 0 0 0 0 0 0 0 0 0 127 0" result="hardAlpha"/>
			<feOffset dx="0" dy="0.495947"/>
			<feGaussianBlur stdDeviation="0"/>
			<feComposite in2="hardAlpha" operator="arithmetic" k2="-1" k3="1"/>
			<feColorMatrix type="matrix" values="0 0 0 0 1 0 0 0 0 1 0 0 0 0 1 0 0 0 1 0"/>
			<feBlend mode="normal" in2="shape" result="effect_innerShadow_1"/>
		</filter>
		<clipPath id="clip3744_51589">
			<rect id="画板 37433" width="60.000000" height="36.000000" fill="white" fill-opacity="0"/>
		</clipPath>
		<linearGradient x1="59.846550" y1="5.613995" x2="7.870550" y2="28.667643" id="paint_linear_3744_51626_0" gradientUnits="userSpaceOnUse">
			<stop stop-color="#0C3682"/>
			<stop offset="1.000000" stop-color="#2B6DDC"/>
		</linearGradient>
		<linearGradient x1="38.721752" y1="13.123272" x2="-4.874860" y2="-0.134762" id="paint_linear_3744_51627_0" gradientUnits="userSpaceOnUse">
			<stop stop-color="#2165E4"/>
			<stop offset="0.997218" stop-color="#A9DDFF"/>
		</linearGradient>
	</defs>
	<rect id="画板 37433" width="60.000000" height="36.000000" fill="#FFFFFF" fill-opacity="0"/>
	<g clip-path="url(#clip3744_51589)">
		<path id="矢量 13" d="M2.33 8.46L20.96 8.46C22.24 8.46 23.18 7.26 22.89 6.02L22.78 5.54C22.41 3.98 23.94 2.65 25.44 3.24L56.46 15.48C57.92 16.05 58.17 18.02 56.9 18.93L35.25 34.53C34.16 35.32 32.62 34.81 32.2 33.53L30.18 27.24C29.91 26.42 29.15 25.86 28.29 25.86L3.6 25.86C2.57 25.86 1.72 25.08 1.62 24.06L0.35 10.63C0.24 9.46 1.16 8.46 2.33 8.46Z" fill="url(#paint_linear_3744_51626_0)" fill-opacity="1.000000" fill-rule="evenodd"/>
		<g filter="url(#filter_3744_51627_dd)">
			<path id="矢量 13" d="M2.33 6.47L20.96 6.47C22.24 6.47 23.18 5.28 22.89 4.03L22.78 3.56C22.41 2 23.94 0.67 25.44 1.25L56.46 13.5C57.92 14.07 58.17 16.03 56.9 16.95L35.25 32.55C34.16 33.34 32.62 32.83 32.2 31.55L30.18 25.25C29.91 24.43 29.15 23.88 28.29 23.88L3.6 23.88C2.57 23.88 1.72 23.1 1.62 22.08L0.35 8.64C0.24 7.48 1.16 6.47 2.33 6.47Z" fill="url(#paint_linear_3744_51627_0)" fill-opacity="1.000000" fill-rule="evenodd"/>
		</g>
		<path id="Y+" d="M35.34 23L33.48 23L33.48 18.54L29.95 11.23L31.93 11.23L33.29 14.35C33.66 15.23 34 16.04 34.39 16.94L34.46 16.94C34.84 16.04 35.23 15.23 35.58 14.35L36.96 11.23L38.89 11.23L35.34 18.54L35.34 23ZM44.11 21.19L42.7 21.19L42.7 17.74L39.45 17.74L39.45 16.39L42.7 16.39L42.7 12.94L44.11 12.94L44.11 16.39L47.35 16.39L47.35 17.74L44.11 17.74L44.11 21.19Z" fill="#FFFFFF" fill-opacity="1.000000" fill-rule="evenodd"/>
	</g>
</svg>
