<svg width="26.000000" height="20.000000" viewBox="0 0 26 20" fill="none" xmlns="http://www.w3.org/2000/svg" xmlns:xlink="http://www.w3.org/1999/xlink">
	<desc>
			Created with Pixso.
	</desc>
	<defs/>
	<path id="Vector 1397 (边框)" d="M0.38 13C0.61 13.24 0.89 13.36 1.21 13.36L5.06 13.36L5.06 18.71C5.06 19.09 5.16 19.38 5.35 19.57C5.54 19.76 5.83 19.86 6.21 19.86L19.21 19.86C19.6 19.86 19.89 19.76 20.08 19.57C20.27 19.38 20.36 19.09 20.36 18.71L20.36 13.36L24.21 13.36C24.6 13.36 24.89 13.26 25.08 13.07C25.27 12.88 25.36 12.59 25.36 12.21C25.36 12.04 25.34 11.89 25.28 11.75C25.22 11.61 25.13 11.49 25.01 11.38L13.51 0.38C12.98 -0.13 12.45 -0.13 11.92 0.38L0.42 11.38C0.14 11.64 0 11.91 0 12.18C-0.01 12.45 0.12 12.72 0.38 13ZM4.08 11.06L6.21 11.06C6.6 11.06 6.89 11.15 7.08 11.34C7.27 11.54 7.36 11.82 7.36 12.21L7.36 17.56L18.06 17.56L18.06 12.21C18.06 11.82 18.16 11.54 18.35 11.34C18.54 11.15 18.83 11.06 19.21 11.06L21.35 11.06L12.71 2.8L4.08 11.06Z" fill="#0F0F1D" fill-opacity="1.000000" fill-rule="evenodd"/>
</svg>
