<svg width="29.000000" height="22.000000" viewBox="0 0 29 22" fill="none" xmlns="http://www.w3.org/2000/svg" xmlns:xlink="http://www.w3.org/1999/xlink">
	<desc>
			Created with Pixso.
	</desc>
	<defs/>
	<path id="矢量 184" d="M7.88 20.72C8 20.86 8.13 20.97 8.28 21.04C8.42 21.11 8.59 21.15 8.77 21.15L27 21.15C27.38 21.15 27.67 21.05 27.86 20.86C28.05 20.66 28.15 20.38 28.15 20L28.15 1C28.15 0.61 28.05 0.32 27.86 0.13C27.67 -0.06 27.38 -0.16 27 -0.16L8.77 -0.16C8.59 -0.16 8.42 -0.12 8.28 -0.05C8.13 0.02 8 0.13 7.88 0.27L0.11 9.77C-0.09 10.01 -0.19 10.25 -0.19 10.5C-0.19 10.74 -0.09 10.98 0.11 11.22L7.88 20.72ZM9.32 18.84L2.48 10.5L9.32 2.15L25.85 2.15L25.85 18.84L9.32 18.84ZM13.05 5.44L16.48 8.87L19.91 5.44L21.54 7.07L18.11 10.5L21.54 13.92L19.91 15.55L16.48 12.12L13.05 15.55L11.42 13.92L14.85 10.5L11.42 7.07L13.05 5.44Z" fill="#0F0F1D" fill-opacity="1.000000" fill-rule="evenodd"/>
</svg>
