<svg width="26.664062" height="26.666992" viewBox="0 0 26.6641 26.667" fill="none" xmlns="http://www.w3.org/2000/svg" xmlns:xlink="http://www.w3.org/1999/xlink">
	<desc>
			Created with Pixso.
	</desc>
	<defs/>
	<path id="path" d="M0 13.33L0 5.33L6 5.33L6 4C6 1.79 7.78 0 10 0C12.21 0 14 1.79 14 4L14 5.33L20 5.33L20 13.33L22.66 13.33C24.87 13.33 26.66 15.12 26.66 17.33C26.66 19.54 24.87 21.33 22.66 21.33L20 21.33L20 26.66L0 26.66L0 21.33L2.66 21.33C4.87 21.33 6.66 19.54 6.66 17.33C6.66 15.12 4.87 13.33 2.66 13.33L0 13.33Z" fill="#FFFFFF" fill-opacity="1.000000" fill-rule="nonzero"/>
</svg>
