<svg width="32.000000" height="32.000000" viewBox="0 0 32 32" fill="none" xmlns="http://www.w3.org/2000/svg" xmlns:xlink="http://www.w3.org/1999/xlink">
	<desc>
			Created with Pixso.
	</desc>
	<defs>
		<clipPath id="clip2576_12457">
			<rect id="属性 1=检测" width="32.000000" height="32.000000" transform="translate(0.000000 -0.999023)" fill="white" fill-opacity="0"/>
		</clipPath>
	</defs>
	<g clip-path="url(#clip2576_12457)">
		<path id="Rectangle 4621" d="M9.42 23.39L22.57 23.39C22.89 23.39 23.16 23.61 23.22 23.92L23.82 26.58C23.91 27 23.59 27.39 23.16 27.39L8.83 27.39C8.4 27.39 8.08 27 8.17 26.58L8.77 23.92C8.83 23.61 9.1 23.39 9.42 23.39Z" fill="#FFFFFF" fill-opacity="1.000000" fill-rule="nonzero"/>
		<rect id="Rectangle 4620" x="3.332031" y="2.667969" rx="2.000000" width="25.333334" height="18.666668" fill="#FFFFFF" fill-opacity="1.000000"/>
		<path id="Vector 1396" d="M8 15.83L12.25 11.33C12.45 11.12 12.76 11.06 13.02 11.18L18.3 13.67C18.57 13.8 18.9 13.73 19.09 13.5L24 7.83" stroke="#295AB0" stroke-opacity="1.000000" stroke-width="2.500000" stroke-linecap="square"/>
	</g>
</svg>
