<svg width="32.000000" height="32.000000" viewBox="0 0 32 32" fill="none" xmlns="http://www.w3.org/2000/svg" xmlns:xlink="http://www.w3.org/1999/xlink">
	<desc>
			Created with Pixso.
	</desc>
	<defs>
		<clipPath id="clip2576_12473">
			<rect id="属性 1=画板 37328" width="32.000000" height="32.000000" transform="translate(0.000000 -0.999023)" fill="white" fill-opacity="0"/>
		</clipPath>
	</defs>
	<g clip-path="url(#clip2576_12473)">
		<path id="Rectangle 3469514" d="M5.67 1.59L12.85 1.59C13.19 1.59 13.47 1.87 13.47 2.21L13.47 9.39C13.47 9.73 13.19 10.01 12.85 10.01L5.67 10.01C5.33 10.01 5.06 9.73 5.06 9.39L5.06 2.21C5.06 1.87 5.33 1.59 5.67 1.59Z" fill="#FFFFFF" fill-opacity="1.000000" fill-rule="evenodd"/>
		<path id="Rectangle 3469512" d="M19.13 12.04L26.32 12.04C26.66 12.04 26.93 12.31 26.93 12.65L26.93 17.73C26.93 18.07 26.66 18.35 26.32 18.35L19.13 18.35C18.79 18.35 18.51 18.07 18.51 17.73L18.51 12.65C18.51 12.31 18.79 12.04 19.13 12.04Z" fill="#FFFFFF" fill-opacity="1.000000" fill-rule="evenodd"/>
		<path id="Rectangle 3469513" d="M19.13 22.09L26.32 22.09C26.66 22.09 26.93 22.36 26.93 22.7L26.93 27.78C26.93 28.12 26.66 28.4 26.32 28.4L19.13 28.4C18.79 28.4 18.51 28.12 18.51 27.78L18.51 22.7C18.51 22.36 18.79 22.09 19.13 22.09Z" fill="#FFFFFF" fill-opacity="1.000000" fill-rule="evenodd"/>
		<path id="矢量 118" d="M9.26 8.88L9.26 15.19L20.67 15.19" stroke="#FFFFFF" stroke-opacity="1.000000" stroke-width="2.500000"/>
		<path id="矢量 119" d="M9.26 15.11L9.26 25.24L20.67 25.24" stroke="#FFFFFF" stroke-opacity="1.000000" stroke-width="2.500000" stroke-linejoin="round"/>
	</g>
</svg>
