<svg width="32.000000" height="32.000000" viewBox="0 0 32 32" fill="none" xmlns="http://www.w3.org/2000/svg" xmlns:xlink="http://www.w3.org/1999/xlink">
	<desc>
			Created with Pixso.
	</desc>
	<defs>
		<clipPath id="clip2576_12466">
			<rect id="属性 1=系统设置" rx="-0.400000" width="31.200001" height="31.200001" transform="translate(-0.100000 -0.599023)" fill="white" fill-opacity="0"/>
		</clipPath>
	</defs>
	<g clip-path="url(#clip2576_12466)">
		<path id="Subtract" d="M19.51 2.68C19.73 2.31 20.17 2.09 20.58 2.25C21.81 2.74 22.95 3.41 23.98 4.22C24.32 4.49 24.35 4.98 24.14 5.36C23.34 6.75 23.29 8.51 24.15 10C25.01 11.48 26.56 12.32 28.16 12.33C28.6 12.33 29.01 12.6 29.07 13.03C29.17 13.67 29.21 14.33 29.21 15C29.21 15.66 29.17 16.32 29.07 16.96C29.01 17.39 28.6 17.67 28.16 17.67C26.56 17.68 25.01 18.51 24.15 20C23.29 21.48 23.34 23.25 24.14 24.64C24.35 25.01 24.32 25.51 23.98 25.78C22.95 26.59 21.81 27.25 20.58 27.74C20.17 27.9 19.73 27.68 19.51 27.31C18.7 25.93 17.2 25 15.49 25C13.77 25 12.27 25.92 11.46 27.3C11.25 27.68 10.8 27.9 10.4 27.74C9.17 27.24 8.02 26.58 7 25.77C6.66 25.5 6.62 25.01 6.84 24.63C7.63 23.24 7.68 21.48 6.82 20C5.97 18.51 4.42 17.68 2.82 17.67C2.39 17.66 1.98 17.39 1.92 16.96C1.82 16.32 1.78 15.66 1.78 15C1.78 14.33 1.82 13.67 1.92 13.03C1.98 12.6 2.39 12.33 2.82 12.33C4.42 12.31 5.97 11.48 6.82 10C7.68 8.51 7.63 6.75 6.84 5.36C6.62 4.99 6.66 4.5 7 4.23C8.02 3.42 9.17 2.75 10.4 2.26C10.8 2.09 11.25 2.31 11.46 2.69C12.27 4.07 13.77 5 15.49 5C17.2 5 18.7 4.07 19.51 2.68ZM15.49 21.47C19.06 21.47 21.96 18.57 21.96 15C21.96 11.42 19.06 8.52 15.49 8.52C11.91 8.52 9.01 11.42 9.01 15C9.01 18.57 11.91 21.47 15.49 21.47Z" fill="#FFFFFF" fill-opacity="1.000000" fill-rule="evenodd"/>
		<circle id="Ellipse 1142" cx="15.500000" cy="14.998047" r="4.057328" fill="#FFFFFF" fill-opacity="1.000000"/>
	</g>
	<rect id="属性 1=系统设置" rx="-0.400000" width="31.200001" height="31.200001" transform="translate(-0.100000 -0.599023)" stroke="#000000" stroke-opacity="0" stroke-width="0.800000"/>
</svg>
