<svg width="32.000000" height="32.000000" viewBox="0 0 32 32" fill="none" xmlns="http://www.w3.org/2000/svg" xmlns:xlink="http://www.w3.org/1999/xlink">
	<desc>
			Created with Pixso.
	</desc>
	<defs>
		<clipPath id="clip2576_12481">
			<rect id="属性 1=示教" width="32.000000" height="32.000000" transform="translate(-0.500000 -0.999023)" fill="white" fill-opacity="0"/>
		</clipPath>
	</defs>
	<rect id="属性 1=示教" width="32.000000" height="32.000000" transform="translate(-0.500000 -0.999023)" fill="#E4E3E3" fill-opacity="0"/>
	<g clip-path="url(#clip2576_12481)">
		<rect id="矩形 3169" x="13.460938" y="1.180664" rx="2.000000" width="16.000000" height="12.819336" stroke="#FFFFFF" stroke-opacity="0" stroke-width="2.000000"/>
		<path id="Vector 1435 (Stroke)" d="M20.69 2.89L18.73 5.82L20.43 6.96L21.94 4.7L24.82 5.16L25.14 3.13L21.47 2.55C21.16 2.5 20.86 2.63 20.69 2.89Z" fill="#FFFFFF" fill-opacity="1.000000" fill-rule="evenodd"/>
		<path id="Vector 1436 (Stroke)" d="M22.78 7.85L20.52 6.89L19.71 8.77L22.55 9.98C22.77 10.07 23.03 10.06 23.24 9.94L25.78 8.5L24.77 6.71L22.78 7.85Z" fill="#FFFFFF" fill-opacity="1.000000" fill-rule="evenodd"/>
		<path id="Rectangle 4691" d="M14.22 23.63L7.65 15.15L11.74 12.08L19.67 22.65L14.22 23.63Z" fill="#FFFFFF" fill-opacity="1.000000" fill-rule="evenodd"/>
		<rect id="Rectangle 4690" x="8.253906" y="21.230469" rx="0.787218" width="14.452826" height="3.148871" fill="#FFFFFF" fill-opacity="1.000000"/>
		<path id="Rectangle 4693" d="M4.97 25.95L26.01 25.95C26.22 25.95 26.41 26.03 26.56 26.16L28.22 27.74C28.74 28.23 28.39 29.1 27.68 29.1L3.3 29.1C2.59 29.1 2.25 28.23 2.76 27.74L4.43 26.16C4.58 26.03 4.77 25.95 4.97 25.95Z" fill="#FFFFFF" fill-opacity="1.000000" fill-rule="nonzero"/>
		<rect id="Rectangle 4692" width="12.498383" height="4.723307" transform="matrix(-0.913732 0.406317 0.406317 0.913732 19.5703 4.64941)" fill="#FFFFFF" fill-opacity="1.000000"/>
		<circle id="Ellipse 1175" cx="9.457031" cy="12.443359" r="3.936089" fill="#FFFFFF" fill-opacity="1.000000"/>
	</g>
</svg>
