<svg width="12.000000" height="15.801758" viewBox="0 0 12 15.8018" fill="none" xmlns="http://www.w3.org/2000/svg" xmlns:xlink="http://www.w3.org/1999/xlink">
	<desc>
			Created with Pixso.
	</desc>
	<defs/>
	<path id="Vector" d="M5.19 1.14C5.19 0.51 5.36 0 6 0C6.71 0 6.82 0.51 6.82 1.14L6.82 1.86C9.08 2.25 10.79 4.21 10.79 6.58L10.79 8.54C10.79 9.23 10.98 9.92 11.35 10.51L11.93 11.44C12.11 11.74 11.9 12.12 11.55 12.12L0.44 12.12C0.09 12.12 -0.12 11.74 0.06 11.44L0.64 10.51C1.01 9.92 1.2 9.23 1.2 8.54L1.2 6.58C1.2 4.21 2.92 2.24 5.19 1.85L5.19 1.14ZM2.79 13.69C2.76 13.64 2.81 13.58 2.87 13.58L9.12 13.58C9.18 13.58 9.23 13.64 9.2 13.69C8.66 14.93 7.43 15.8 6 15.8C4.56 15.8 3.33 14.93 2.79 13.69Z" fill="#0C1A34" fill-opacity="1.000000" fill-rule="evenodd"/>
</svg>
