<svg width="20.000000" height="20.000000" viewBox="0 0 20 20" fill="none" xmlns="http://www.w3.org/2000/svg" xmlns:xlink="http://www.w3.org/1999/xlink">
	<desc>
			Created with Pixso.
	</desc>
	<defs>
		<clipPath id="clip3300_41010">
			<rect id="组件集 280" width="20.000000" height="20.000000" fill="white" fill-opacity="0"/>
		</clipPath>
	</defs>
	<rect id="组件集 280" width="20.000000" height="20.000000" fill="#3F6BB8" fill-opacity="0"/>
	<g clip-path="url(#clip3300_41010)">
		<rect id="矩形 3190" x="4.250000" y="8.550781" rx="2.000000" width="11.500000" height="8.500000" stroke="#FFFFFF" stroke-opacity="1.000000" stroke-width="1.500000"/>
		<path id="矩形 3191" d="M5.75 8C5.75 7.22 5.9 6.47 6.2 5.76C6.49 5.07 6.9 4.46 7.43 3.93C7.96 3.4 8.57 2.99 9.26 2.7C9.97 2.4 10.71 2.25 11.5 2.25L13.5 2.25L13.5 3.75L11.5 3.75C10.92 3.75 10.37 3.86 9.84 4.08C9.33 4.29 8.88 4.6 8.49 4.99C8.1 5.38 7.79 5.83 7.58 6.34C7.35 6.87 7.25 7.42 7.25 8L5.75 8ZM13.48 2.26L13.5 2.25C13.92 2.25 14.25 2.58 14.25 3C14.25 3.41 13.92 3.75 13.5 3.75L13.48 3.73L13.48 2.26ZM7.23 7.98L7.25 8C7.25 8.41 6.92 8.75 6.5 8.75C6.07 8.75 5.75 8.41 5.75 8L5.76 7.98L7.23 7.98Z" fill="#FFFFFF" fill-opacity="1.000000" fill-rule="evenodd"/>
		<path id="矢量 598" d="M10 12L10 14" stroke="#FFFFFF" stroke-opacity="1.000000" stroke-width="1.670000" stroke-linecap="round"/>
	</g>
</svg>
