<svg width="20.000000" height="20.000000" viewBox="0 0 20 20" fill="none" xmlns="http://www.w3.org/2000/svg" xmlns:xlink="http://www.w3.org/1999/xlink">
	<desc>
			Created with Pixso.
	</desc>
	<defs>
		<clipPath id="clip2847_39694">
			<rect id="自动" width="20.000000" height="20.000000" fill="white" fill-opacity="0"/>
		</clipPath>
	</defs>
	<g clip-path="url(#clip2847_39694)">
		<path id="矢量 167" d="M2.61 10.4C2.36 9.62 2.28 8.85 2.36 8.11C2.46 7.36 2.72 6.56 3.14 5.86C3.53 5.21 4.06 4.63 4.62 4.2C5.18 3.79 5.83 3.49 6.57 3.3C7.3 3.11 8.09 3.08 8.78 3.18C9.48 3.28 10.15 3.53 10.8 3.92C11.45 4.3 12.03 4.84 12.46 5.4C12.87 5.96 13.17 6.61 13.36 7.35C13.55 8.08 13.58 8.87 13.49 9.56C13.38 10.26 13.12 10.95 12.74 11.6C12.69 11.68 12.64 11.77 12.59 11.85C12.46 12.04 12.31 12.23 12.14 12.4C11.97 12.57 11.78 12.72 11.58 12.85C11.41 12.96 11.22 13.06 11.03 13.15C10.9 13.2 10.78 13.24 10.65 13.28C11.17 13.38 11.67 13.4 12.17 13.32C12.73 13.24 13.27 13.04 13.79 12.72C14.32 12.4 14.75 12.01 15.08 11.56C15.42 11.1 15.66 10.57 15.8 9.98C15.95 9.38 15.98 8.8 15.89 8.24C15.81 7.68 15.61 7.14 15.29 6.62C14.94 6.05 14.53 5.59 14.03 5.25C13.53 4.91 12.96 4.67 12.3 4.55C12.22 4.54 12.14 4.51 12.08 4.46C12.02 4.42 11.97 4.37 11.93 4.31C11.89 4.25 11.86 4.19 11.84 4.12C11.82 4.04 11.82 3.96 11.84 3.88C11.85 3.8 11.89 3.72 11.93 3.66C11.97 3.6 12.01 3.55 12.08 3.51C12.14 3.47 12.21 3.44 12.27 3.42C12.35 3.41 12.42 3.41 12.51 3.42C13.32 3.57 14.09 3.9 14.71 4.32C15.33 4.75 15.85 5.32 16.27 6.02C16.66 6.67 16.93 7.41 17.04 8.1C17.14 8.8 17.1 9.51 16.92 10.25C16.74 10.99 16.4 11.7 15.99 12.26C15.57 12.83 15.04 13.31 14.39 13.7C13.74 14.09 13 14.36 12.31 14.47C11.61 14.57 10.89 14.53 10.16 14.35C9.42 14.17 8.71 13.83 8.14 13.42C7.58 13 7.1 12.47 6.71 11.82C6.69 11.78 6.67 11.74 6.65 11.7C6.57 11.57 6.51 11.43 6.44 11.29C6.36 11.09 6.3 10.89 6.25 10.69C6.2 10.44 6.17 10.19 6.17 9.93C6.17 9.67 6.2 9.41 6.26 9.16C5.95 9.51 5.71 9.9 5.54 10.31C5.32 10.84 5.21 11.41 5.21 12.02C5.21 12.63 5.32 13.2 5.54 13.73C5.75 14.25 6.08 14.73 6.51 15.16C6.95 15.59 7.42 15.92 7.95 16.14C8.47 16.35 9.04 16.46 9.66 16.46C10.32 16.46 10.92 16.34 11.48 16.09C12.03 15.85 12.53 15.47 12.97 14.98C13.03 14.91 13.09 14.87 13.16 14.83C13.22 14.8 13.29 14.79 13.37 14.78C13.44 14.78 13.51 14.79 13.58 14.81C13.65 14.83 13.72 14.87 13.78 14.93C13.84 14.99 13.89 15.05 13.92 15.12C13.95 15.18 13.97 15.25 13.98 15.33C13.98 15.4 13.97 15.47 13.95 15.54C13.92 15.61 13.88 15.68 13.83 15.74C13.28 16.36 12.6 16.85 11.91 17.16C11.23 17.46 10.47 17.61 9.66 17.61C8.9 17.61 8.12 17.45 7.48 17.19C6.83 16.91 6.24 16.51 5.7 15.97C5.16 15.44 4.73 14.78 4.46 14.13C4.19 13.48 4.06 12.78 4.06 12.02C4.06 11.26 4.22 10.49 4.49 9.84C4.76 9.19 5.16 8.6 5.7 8.07C6.24 7.53 6.86 7.11 7.51 6.84C8.16 6.57 8.88 6.43 9.67 6.43C9.93 6.43 10.18 6.46 10.43 6.52C10.63 6.56 10.83 6.62 11.03 6.71C11.22 6.79 11.41 6.89 11.58 7.01C11.78 7.14 12.06 7.38 12.23 7.55C12.07 6.99 11.83 6.49 11.51 6.06C11.17 5.6 10.74 5.22 10.21 4.9C9.69 4.59 9.14 4.39 8.58 4.31C8.02 4.23 7.44 4.26 6.85 4.42C6.25 4.57 5.73 4.81 5.28 5.15C4.82 5.49 4.44 5.92 4.12 6.45C3.79 7.02 3.58 7.6 3.51 8.2C3.44 8.8 3.51 9.42 3.71 10.06C3.73 10.14 3.74 10.22 3.73 10.29C3.73 10.36 3.7 10.43 3.67 10.5C3.64 10.56 3.59 10.62 3.54 10.66C3.48 10.72 3.41 10.75 3.33 10.78C3.25 10.8 3.17 10.81 3.09 10.8C3.03 10.8 2.96 10.78 2.89 10.74C2.82 10.71 2.77 10.66 2.72 10.61C2.67 10.55 2.64 10.48 2.61 10.4ZM7.5 10.84C7.56 10.96 7.63 11.1 7.7 11.21C7.79 11.34 7.89 11.47 8.01 11.59C8.12 11.7 8.25 11.81 8.39 11.89C8.5 11.97 8.62 12.03 8.75 12.09C8.88 12.14 9.01 12.18 9.14 12.21C9.31 12.25 9.48 12.27 9.67 12.27C9.85 12.27 10.02 12.25 10.19 12.21C10.33 12.18 10.45 12.14 10.58 12.09C10.71 12.03 10.83 11.97 10.94 11.89C11.08 11.81 11.21 11.7 11.32 11.59C11.44 11.47 11.54 11.34 11.63 11.21C11.71 11.09 11.77 10.97 11.83 10.84C11.88 10.71 11.92 10.59 11.95 10.46C11.99 10.29 12.01 10.11 12.01 9.93C12.01 9.75 11.99 9.57 11.95 9.4C11.92 9.27 11.88 9.14 11.83 9.01C11.77 8.89 11.71 8.76 11.63 8.65C11.54 8.51 11.44 8.39 11.32 8.27C11.21 8.15 11.08 8.05 10.94 7.96C10.83 7.89 10.71 7.82 10.58 7.77C10.45 7.71 10.33 7.67 10.19 7.64C10.02 7.6 9.85 7.58 9.67 7.58C9.48 7.58 9.31 7.6 9.14 7.64C9.01 7.67 8.88 7.71 8.75 7.77C8.62 7.82 8.5 7.89 8.39 7.96C8.25 8.05 8.12 8.15 8.01 8.27C7.89 8.39 7.79 8.51 7.7 8.65C7.62 8.76 7.56 8.89 7.5 9.01C7.45 9.14 7.41 9.27 7.38 9.4C7.34 9.57 7.32 9.75 7.32 9.93C7.32 10.11 7.34 10.29 7.38 10.46C7.41 10.59 7.45 10.71 7.5 10.84Z" fill="#93ACD7" fill-opacity="1.000000" fill-rule="evenodd"/>
	</g>
</svg>
