<svg width="20.000000" height="20.000000" viewBox="0 0 20 20" fill="none" xmlns="http://www.w3.org/2000/svg" xmlns:xlink="http://www.w3.org/1999/xlink">
	<desc>
			Created with Pixso.
	</desc>
	<defs/>
	<rect id="icon/失败" width="20.000000" height="20.000000" fill="#FFFFFF" fill-opacity="0"/>
	<path id="Subtract" d="M10 18C14.41 18 18 14.41 18 10C18 5.58 14.41 2 10 2C5.58 2 2 5.58 2 10C2 14.41 5.58 18 10 18ZM6.44 13.55C6.08 13.19 6.08 12.61 6.44 12.26L8.7 10L6.44 7.73C6.08 7.38 6.08 6.8 6.44 6.44C6.8 6.08 7.37 6.08 7.73 6.44L10 8.7L12.26 6.44C12.62 6.08 13.19 6.08 13.55 6.44C13.91 6.8 13.91 7.37 13.55 7.73L11.29 10L13.55 12.26C13.91 12.62 13.91 13.19 13.55 13.55C13.19 13.91 12.62 13.91 12.26 13.55L10 11.29L7.73 13.55C7.37 13.91 6.8 13.91 6.44 13.55Z" fill="#BFBFCF" fill-opacity="1.000000" fill-rule="evenodd"/>
</svg>
