<svg width="20.000000" height="20.000000" viewBox="0 0 20 20" fill="none" xmlns="http://www.w3.org/2000/svg" xmlns:xlink="http://www.w3.org/1999/xlink">
	<desc>
			Created with Pixso.
	</desc>
	<defs>
		<clipPath id="clip2842_39637">
			<rect id="画板 37388" width="20.000000" height="20.000000" fill="white" fill-opacity="0"/>
		</clipPath>
	</defs>
	<g clip-path="url(#clip2842_39637)">
		<circle id="椭圆 243" cx="6.109375" cy="5.328125" r="3.111111" fill="#C4C4C4" fill-opacity="0"/>
		<circle id="椭圆 243" cx="6.109375" cy="5.328125" r="2.333333" stroke="#FFFFFF" stroke-opacity="1.000000" stroke-width="1.555556"/>
		<path id="矩形 811" d="M8.44 4.55L14.66 4.55C15.08 4.55 15.49 4.63 15.87 4.79C16.25 4.95 16.58 5.17 16.86 5.46C17.15 5.74 17.37 6.07 17.53 6.45C17.69 6.83 17.77 7.24 17.77 7.66C17.77 8.08 17.69 8.48 17.53 8.87C17.37 9.24 17.15 9.57 16.86 9.86C16.58 10.14 16.25 10.37 15.87 10.52C15.49 10.69 15.08 10.77 14.66 10.77L8.44 10.77L8.44 9.21L14.66 9.21C14.87 9.21 15.08 9.17 15.27 9.09C15.45 9.01 15.62 8.9 15.76 8.76C15.91 8.61 16.02 8.45 16.1 8.26C16.18 8.07 16.22 7.87 16.22 7.66C16.22 7.45 16.18 7.24 16.1 7.05C16.02 6.87 15.91 6.7 15.76 6.56C15.62 6.41 15.45 6.3 15.27 6.22C15.08 6.14 14.87 6.1 14.66 6.1L8.44 6.1L8.44 4.55Z" fill="#FFFFFF" fill-opacity="1.000000" fill-rule="evenodd"/>
		<path id="矩形 812" d="M13.89 9.21L7.66 9.21C7.24 9.21 6.84 9.29 6.45 9.46C6.08 9.61 5.75 9.84 5.46 10.12C5.18 10.41 4.96 10.74 4.8 11.11C4.64 11.5 4.55 11.9 4.55 12.32C4.55 12.74 4.64 13.15 4.8 13.53C4.96 13.91 5.18 14.24 5.46 14.52C5.75 14.81 6.08 15.03 6.45 15.19C6.84 15.35 7.24 15.43 7.66 15.43L13.89 15.43L13.89 13.88L7.66 13.88C7.45 13.88 7.25 13.84 7.06 13.76C6.87 13.68 6.71 13.57 6.57 13.42C6.42 13.28 6.31 13.11 6.23 12.93C6.15 12.74 6.11 12.53 6.11 12.32C6.11 12.11 6.15 11.91 6.23 11.72C6.31 11.53 6.42 11.37 6.57 11.22C6.71 11.08 6.87 10.97 7.06 10.89C7.25 10.81 7.45 10.77 7.66 10.77L13.89 10.77L13.89 9.21Z" fill="#FFFFFF" fill-opacity="1.000000" fill-rule="evenodd"/>
		<path id="多边形 4" d="M16.4 14.36L14.08 12.48C13.82 12.27 13.44 12.45 13.44 12.78L13.44 16.54C13.44 16.87 13.82 17.05 14.08 16.84L16.4 14.97C16.6 14.81 16.6 14.52 16.4 14.36Z" fill="#FFFFFF" fill-opacity="1.000000" fill-rule="evenodd"/>
	</g>
</svg>
