<svg width="20.000000" height="20.000000" viewBox="0 0 20 20" fill="none" xmlns="http://www.w3.org/2000/svg" xmlns:xlink="http://www.w3.org/1999/xlink">
	<desc>
			Created with Pixso.
	</desc>
	<defs>
		<clipPath id="clip4011_58941">
			<rect id="本体未上电" width="20.000000" height="20.000000" fill="white" fill-opacity="0"/>
		</clipPath>
	</defs>
	<rect id="本体未上电" width="20.000000" height="20.000000" fill="#797979" fill-opacity="0"/>
	<g clip-path="url(#clip4011_58941)">
		<path id="矢量 21" d="M14.82 4.56L16.3 2.7C16.44 2.52 16.68 2.43 16.91 2.49L19.68 3.15L19.32 4.68L17.14 4.16L16.09 5.48L17.14 6.81L19.32 6.29L19.68 7.82L16.91 8.48C16.68 8.54 16.44 8.45 16.3 8.27L14.76 6.33L12.63 7.01C12.72 7.32 12.77 7.64 12.77 7.98C12.77 8.94 12.39 9.81 11.76 10.44L14.45 15.8L18.33 15.8C18.8 15.8 19.16 16.17 19.16 16.64C19.16 17.11 18.8 17.47 18.33 17.47L5.52 17.47C5.05 17.47 4.68 17.11 4.68 16.64C4.68 16.17 5.05 15.8 5.52 15.8L6.5 15.8L6.51 10.23C6.01 9.62 5.7 8.83 5.7 7.98C5.7 6.03 7.28 4.45 9.23 4.45C10.23 4.45 11.14 4.86 11.78 5.53L14.82 4.56ZM10.34 11.33C10 11.45 9.62 11.51 9.23 11.51C8.87 11.51 8.51 11.46 8.18 11.35L8.17 15.8L12.58 15.8L10.34 11.33ZM9.23 6.12C8.21 6.12 7.37 6.95 7.37 7.98C7.37 9.01 8.21 9.84 9.23 9.84C10.26 9.84 11.1 9.01 11.1 7.98C11.1 6.95 10.26 6.12 9.23 6.12Z" fill="#93ACD7" fill-opacity="1.000000" fill-rule="evenodd"/>
		<path id="矢量 647" d="M4.09 5.56L3.15 4.86L3.15 16.76C3.15 17.03 2.96 17.24 2.71 17.24C2.46 17.24 2.28 17.03 2.28 16.76L2.25 4.86L1.31 5.57C1.13 5.76 0.8 5.76 0.62 5.57C0.53 5.47 0.5 5.34 0.5 5.22C0.5 5.1 0.53 4.97 0.62 4.88L2.46 3.22C2.59 3.1 2.8 3.1 2.94 3.22L4.78 4.88C4.87 4.97 4.9 5.09 4.9 5.22C4.9 5.34 4.87 5.46 4.78 5.56C4.6 5.75 4.27 5.75 4.09 5.56Z" fill="#93ACD7" fill-opacity="1.000000" fill-rule="evenodd"/>
		<path id="矢量 647" d="M3.15 4.86L3.15 16.76C3.15 17.03 2.96 17.24 2.71 17.24C2.46 17.24 2.28 17.03 2.28 16.76L2.25 4.86L1.31 5.57C1.13 5.76 0.8 5.76 0.62 5.57C0.53 5.47 0.5 5.34 0.5 5.22C0.5 5.1 0.53 4.97 0.62 4.88L2.46 3.22C2.59 3.1 2.8 3.1 2.94 3.22L4.78 4.88C4.87 4.97 4.9 5.09 4.9 5.22C4.9 5.34 4.87 5.46 4.78 5.56C4.6 5.75 4.27 5.75 4.09 5.56L3.15 4.86Z" stroke="#93ACD7" stroke-opacity="1.000000" stroke-width="0.500000"/>
	</g>
</svg>
