<svg width="20.000000" height="20.000000" viewBox="0 0 20 20" fill="none" xmlns="http://www.w3.org/2000/svg" xmlns:xlink="http://www.w3.org/1999/xlink">
	<desc>
			Created with Pixso.
	</desc>
	<defs>
		<clipPath id="clip2896_39671">
			<rect id="未连接" width="20.000000" height="20.000000" fill="white" fill-opacity="0"/>
		</clipPath>
	</defs>
	<g clip-path="url(#clip2896_39671)">
		<path id="矢量 174" d="M9.12 5.53L14.54 5.53L12.98 7.08L9.12 7.08C8.77 8.42 7.56 9.42 6.1 9.42C4.39 9.42 3 8.02 3 6.31C3 4.59 4.39 3.19 6.1 3.19C7.56 3.19 8.77 4.19 9.12 5.53ZM5.55 17.75L18.55 4.75C18.86 4.44 18.86 3.95 18.55 3.64C18.24 3.33 17.75 3.33 17.44 3.64L4.44 16.64C4.13 16.95 4.13 17.44 4.44 17.75C4.75 18.06 5.24 18.06 5.55 17.75ZM4.55 6.31C4.55 5.45 5.25 4.75 6.1 4.75C6.96 4.75 7.66 5.45 7.66 6.31C7.66 7.16 6.96 7.86 6.1 7.86C5.25 7.86 4.55 7.16 4.55 6.31ZM14.66 10.19L14.12 10.19L12.56 11.75L14.66 11.75C14.89 11.75 15.11 11.73 15.33 11.68C15.51 11.64 15.69 11.58 15.87 11.5C16.25 11.35 16.57 11.13 16.86 10.84C17.01 10.69 17.14 10.53 17.26 10.35C17.36 10.2 17.45 10.03 17.53 9.85C17.69 9.46 17.77 9.06 17.77 8.64C17.77 8.41 17.75 8.19 17.7 7.97C17.66 7.79 17.6 7.61 17.53 7.43C17.46 7.28 17.39 7.14 17.31 7L16.14 8.17C16.16 8.2 16.17 8.24 16.17 8.28C16.2 8.4 16.22 8.52 16.22 8.64C16.22 8.76 16.2 8.88 16.17 9C16.16 9.08 16.13 9.16 16.1 9.25C16.02 9.43 15.91 9.59 15.76 9.74C15.62 9.88 15.45 10 15.27 10.07C15.07 10.16 14.87 10.19 14.66 10.19ZM7.66 10.19L9.87 10.19L8.32 11.75L7.66 11.75Q7.48 11.75 7.3 11.79C7.22 11.81 7.14 11.84 7.06 11.87C6.97 11.91 6.89 11.95 6.82 12C6.73 12.06 6.64 12.13 6.56 12.21C6.42 12.35 6.31 12.51 6.23 12.7C6.19 12.78 6.17 12.86 6.15 12.95C6.12 13.06 6.1 13.18 6.1 13.31C6.1 13.43 6.12 13.55 6.15 13.66C6.16 13.73 6.18 13.8 6.21 13.86L5.06 15.01C4.96 14.85 4.87 14.69 4.8 14.52C4.63 14.13 4.55 13.73 4.55 13.31C4.55 13.08 4.57 12.85 4.62 12.64C4.66 12.45 4.72 12.27 4.8 12.09Q4.91 11.83 5.07 11.59C5.18 11.42 5.31 11.25 5.46 11.11C5.61 10.96 5.77 10.82 5.95 10.71C6.1 10.6 6.27 10.51 6.45 10.44C6.63 10.36 6.81 10.31 7 10.27C7.21 10.22 7.43 10.19 7.66 10.19ZM7.89 16.42L9.45 14.86L13.44 14.86L13.44 13.76C13.44 13.44 13.82 13.25 14.07 13.46L16.4 15.35C16.59 15.5 16.59 15.8 16.4 15.95L14.07 17.83C13.82 18.03 13.44 17.85 13.44 17.52L13.44 16.42L7.89 16.42Z" fill="#FFFFFF" fill-opacity="1.000000" fill-rule="evenodd"/>
	</g>
</svg>
