<svg width="20.000000" height="20.000000" viewBox="0 0 20 20" fill="none" xmlns="http://www.w3.org/2000/svg" xmlns:xlink="http://www.w3.org/1999/xlink">
	<desc>
			Created with Pixso.
	</desc>
	<defs>
		<clipPath id="clip3996_58279">
			<rect id="手动.svg" width="20.000000" height="20.000000" fill="white" fill-opacity="0"/>
		</clipPath>
	</defs>
	<rect id="手动.svg" width="20.000000" height="20.000000" fill="#C4C4C4" fill-opacity="0"/>
	<g clip-path="url(#clip3996_58279)">
		<path id="path" d="M17.78 7L17.83 7C18.74 7 19.47 7.74 19.47 8.64L19.47 13.53C19.47 15.84 17.6 17.71 15.3 17.71L11.9 17.71C11.74 17.7 11.57 17.7 11.41 17.68C11.25 17.66 11.09 17.63 10.93 17.59C10.77 17.55 10.61 17.5 10.46 17.45C10.31 17.39 10.16 17.33 10.01 17.25C9.87 17.18 9.73 17.09 9.59 17C9.45 16.91 9.32 16.81 9.2 16.71C9.07 16.6 8.96 16.49 8.84 16.37C8.73 16.25 8.63 16.12 8.53 15.99L5.2 11.42C5.15 11.34 5.1 11.26 5.06 11.18C5.02 11.1 4.99 11.01 4.96 10.93C4.94 10.84 4.92 10.75 4.91 10.66C4.89 10.57 4.89 10.47 4.89 10.38C4.9 10.29 4.91 10.2 4.93 10.11C4.95 10.02 4.98 9.93 5.01 9.85C5.05 9.76 5.09 9.68 5.14 9.6C5.19 9.53 5.24 9.45 5.3 9.38L5.46 9.21C6.03 8.56 7.03 8.5 7.68 9.08C7.7 9.09 7.71 9.11 7.73 9.12L8.36 9.73C8.39 9.76 8.41 9.77 8.44 9.79C8.48 9.8 8.51 9.8 8.54 9.8C8.57 9.8 8.6 9.79 8.63 9.78C8.66 9.77 8.69 9.75 8.71 9.73C8.76 9.68 8.78 9.62 8.78 9.56L8.78 3.93C8.78 3.02 9.51 2.28 10.42 2.28L10.47 2.28C11.38 2.28 12.12 3.02 12.12 3.93L12.12 5.42C12.35 5.29 12.6 5.23 12.87 5.23L12.92 5.23C13.68 5.23 14.31 5.74 14.51 6.43C14.76 6.29 15.03 6.21 15.33 6.21L15.38 6.21C16.07 6.21 16.66 6.64 16.91 7.25C17.03 7.17 17.17 7.11 17.32 7.06C17.47 7.02 17.62 7 17.78 7ZM9.16 15.53C9.24 15.64 9.32 15.74 9.41 15.84C9.5 15.94 9.6 16.03 9.7 16.12C9.8 16.2 9.91 16.28 10.02 16.36C10.13 16.43 10.25 16.5 10.36 16.56C10.48 16.62 10.6 16.67 10.73 16.72C10.85 16.77 10.98 16.8 11.11 16.83C11.24 16.87 11.37 16.89 11.5 16.91C11.64 16.92 11.77 16.93 11.9 16.93L15.3 16.93C17.17 16.93 18.69 15.41 18.69 13.53L18.69 8.64C18.69 8.16 18.31 7.78 17.83 7.78L17.78 7.78C17.3 7.78 16.91 8.16 16.91 8.64L16.91 10.39C16.91 10.83 16.25 10.83 16.25 10.39L16.25 7.86C16.25 7.38 15.85 6.99 15.38 6.99L15.33 6.99C14.85 6.99 14.46 7.38 14.46 7.86L14.46 9.8C14.46 10.24 13.79 10.24 13.79 9.8L13.79 6.88C13.79 6.4 13.4 6.01 12.92 6.01L12.87 6.01C12.4 6.01 12.01 6.4 12.01 6.88L12.01 9.21C12.01 9.66 11.34 9.66 11.34 9.21L11.34 3.93C11.34 3.45 10.95 3.06 10.47 3.06L10.42 3.06C9.94 3.06 9.55 3.45 9.55 3.93L9.55 9.56C9.55 9.82 9.45 10.08 9.27 10.27C8.88 10.67 8.23 10.68 7.83 10.29L7.19 9.68C7.15 9.64 7.11 9.61 7.07 9.58C7.02 9.55 6.97 9.53 6.92 9.51C6.87 9.49 6.82 9.48 6.76 9.47C6.71 9.46 6.66 9.45 6.6 9.46C6.55 9.46 6.5 9.47 6.44 9.48C6.39 9.49 6.34 9.51 6.29 9.53C6.25 9.56 6.2 9.58 6.16 9.62C6.11 9.65 6.07 9.69 6.04 9.73L5.88 9.9C5.85 9.94 5.82 9.97 5.8 10.01C5.77 10.06 5.75 10.1 5.73 10.14C5.71 10.19 5.7 10.23 5.69 10.28C5.68 10.33 5.67 10.37 5.67 10.42C5.67 10.47 5.67 10.52 5.67 10.56C5.68 10.61 5.69 10.66 5.71 10.7C5.72 10.75 5.74 10.79 5.76 10.84C5.78 10.88 5.8 10.92 5.83 10.96L9.16 15.53Z" fill="#FFFFFF" fill-opacity="1.000000" fill-rule="nonzero"/>
		<path id="path" d="M17.83 7C18.74 7 19.47 7.74 19.47 8.64L19.47 13.53C19.47 15.84 17.6 17.71 15.3 17.71L11.9 17.71C11.74 17.7 11.57 17.7 11.41 17.68C11.25 17.66 11.09 17.63 10.93 17.59C10.77 17.55 10.61 17.5 10.46 17.45C10.31 17.39 10.16 17.33 10.01 17.25C9.87 17.18 9.73 17.09 9.59 17C9.45 16.91 9.32 16.81 9.2 16.71C9.07 16.6 8.96 16.49 8.84 16.37C8.73 16.25 8.63 16.12 8.53 15.99L5.2 11.42C5.15 11.34 5.1 11.26 5.06 11.18C5.02 11.1 4.99 11.01 4.96 10.93C4.94 10.84 4.92 10.75 4.91 10.66C4.89 10.57 4.89 10.47 4.89 10.38C4.9 10.29 4.91 10.2 4.93 10.11C4.95 10.02 4.98 9.93 5.01 9.85C5.05 9.76 5.09 9.68 5.14 9.6C5.19 9.53 5.24 9.45 5.3 9.38L5.46 9.21C6.03 8.56 7.03 8.5 7.68 9.08C7.7 9.09 7.71 9.11 7.73 9.12L8.36 9.73C8.39 9.76 8.41 9.77 8.44 9.79C8.48 9.8 8.51 9.8 8.54 9.8C8.57 9.8 8.6 9.79 8.63 9.78C8.66 9.77 8.69 9.75 8.71 9.73C8.76 9.68 8.78 9.62 8.78 9.56L8.78 3.93C8.78 3.02 9.51 2.28 10.42 2.28L10.47 2.28C11.38 2.28 12.12 3.02 12.12 3.93L12.12 5.42C12.35 5.29 12.6 5.23 12.87 5.23L12.92 5.23C13.68 5.23 14.31 5.74 14.51 6.43C14.76 6.29 15.03 6.21 15.33 6.21L15.38 6.21C16.07 6.21 16.66 6.64 16.91 7.25C17.03 7.17 17.17 7.11 17.32 7.06C17.47 7.02 17.62 7 17.78 7L17.83 7ZM9.41 15.84C9.5 15.94 9.6 16.03 9.7 16.12C9.8 16.2 9.91 16.28 10.02 16.36C10.13 16.43 10.25 16.5 10.36 16.56C10.48 16.62 10.6 16.67 10.73 16.72C10.85 16.77 10.98 16.8 11.11 16.83C11.24 16.87 11.37 16.89 11.5 16.91C11.64 16.92 11.77 16.93 11.9 16.93L15.3 16.93C17.17 16.93 18.69 15.41 18.69 13.53L18.69 8.64C18.69 8.16 18.31 7.78 17.83 7.78L17.78 7.78C17.3 7.78 16.91 8.16 16.91 8.64L16.91 10.39C16.91 10.83 16.25 10.83 16.25 10.39L16.25 7.86C16.25 7.38 15.85 6.99 15.38 6.99L15.33 6.99C14.85 6.99 14.46 7.38 14.46 7.86L14.46 9.8C14.46 10.24 13.79 10.24 13.79 9.8L13.79 6.88C13.79 6.4 13.4 6.01 12.92 6.01L12.87 6.01C12.4 6.01 12.01 6.4 12.01 6.88L12.01 9.21C12.01 9.66 11.34 9.66 11.34 9.21L11.34 3.93C11.34 3.45 10.95 3.06 10.47 3.06L10.42 3.06C9.94 3.06 9.55 3.45 9.55 3.93L9.55 9.56C9.55 9.82 9.45 10.08 9.27 10.27C8.88 10.67 8.23 10.68 7.83 10.29L7.19 9.68C7.15 9.64 7.11 9.61 7.07 9.58C7.02 9.55 6.97 9.53 6.92 9.51C6.87 9.49 6.82 9.48 6.76 9.47C6.71 9.46 6.66 9.45 6.6 9.46C6.55 9.46 6.5 9.47 6.44 9.48C6.39 9.49 6.34 9.51 6.29 9.53C6.25 9.56 6.2 9.58 6.16 9.62C6.11 9.65 6.07 9.69 6.04 9.73L5.88 9.9C5.85 9.94 5.82 9.97 5.8 10.01C5.77 10.06 5.75 10.1 5.73 10.14C5.71 10.19 5.7 10.23 5.69 10.28C5.68 10.33 5.67 10.37 5.67 10.42C5.67 10.47 5.67 10.52 5.67 10.56C5.68 10.61 5.69 10.66 5.71 10.7C5.72 10.75 5.74 10.79 5.76 10.84C5.78 10.88 5.8 10.92 5.83 10.96L9.16 15.53C9.24 15.64 9.32 15.74 9.41 15.84Z" stroke="#FFFFFF" stroke-opacity="1.000000" stroke-width="0.320986"/>
		<path id="矢量 646" d="M3.34 3.85L2.67 3.32L2.67 12.31C2.67 12.52 2.51 12.69 2.3 12.69C2.09 12.69 1.92 12.52 1.92 12.31L1.92 3.32L1.21 3.86C1.07 4 0.8 4 0.65 3.86C0.58 3.78 0.53 3.69 0.53 3.59C0.53 3.49 0.58 3.4 0.65 3.32L2.1 2.06C2.21 1.96 2.38 1.96 2.5 2.06L3.9 3.32C3.98 3.4 4 3.49 4 3.59C4 3.68 3.98 3.78 3.9 3.85C3.75 4 3.49 4 3.34 3.85Z" fill="#FFFFFF" fill-opacity="1.000000" fill-rule="evenodd"/>
		<path id="矢量 646" d="M2.67 3.32L2.67 12.31C2.67 12.52 2.51 12.69 2.3 12.69C2.09 12.69 1.92 12.52 1.92 12.31L1.92 3.32L1.21 3.86C1.07 4 0.8 4 0.65 3.86C0.58 3.78 0.53 3.69 0.53 3.59C0.53 3.49 0.58 3.4 0.65 3.32L2.1 2.06C2.21 1.96 2.38 1.96 2.5 2.06L3.9 3.32C3.98 3.4 4 3.49 4 3.59C4 3.68 3.98 3.78 3.9 3.85C3.75 4 3.49 4 3.34 3.85L2.67 3.32Z" stroke="#FFFFFF" stroke-opacity="1.000000" stroke-width="0.300000"/>
		<path id="矢量 646" d="M3.34 16.14L2.67 16.67L2.67 7.68C2.67 7.47 2.51 7.3 2.3 7.3C2.09 7.3 1.92 7.47 1.92 7.68L1.92 16.67L1.21 16.13C1.07 15.99 0.8 15.99 0.65 16.13C0.58 16.21 0.53 16.3 0.53 16.4C0.53 16.5 0.58 16.59 0.65 16.67L2.1 17.93C2.21 18.03 2.38 18.03 2.5 17.93L3.9 16.67C3.98 16.59 4 16.5 4 16.4C4 16.31 3.98 16.21 3.9 16.14C3.75 15.99 3.49 15.99 3.34 16.14Z" fill="#FFFFFF" fill-opacity="1.000000" fill-rule="evenodd"/>
		<path id="矢量 646" d="M2.67 16.67L2.67 7.68C2.67 7.47 2.51 7.3 2.3 7.3C2.09 7.3 1.92 7.47 1.92 7.68L1.92 16.67L1.21 16.13C1.07 15.99 0.8 15.99 0.65 16.13C0.58 16.21 0.53 16.3 0.53 16.4C0.53 16.5 0.58 16.59 0.65 16.67L2.1 17.93C2.21 18.03 2.38 18.03 2.5 17.93L3.9 16.67C3.98 16.59 4 16.5 4 16.4C4 16.31 3.98 16.21 3.9 16.14C3.75 15.99 3.49 15.99 3.34 16.14L2.67 16.67Z" stroke="#FFFFFF" stroke-opacity="1.000000" stroke-width="0.300000"/>
	</g>
</svg>
