<svg width="20.000000" height="20.000000" viewBox="0 0 20 20" fill="none" xmlns="http://www.w3.org/2000/svg" xmlns:xlink="http://www.w3.org/1999/xlink">
	<desc>
			Created with Pixso.
	</desc>
	<defs>
		<clipPath id="clip3996_58281">
			<rect id="手动.svg" width="20.000000" height="20.000000" fill="white" fill-opacity="0"/>
		</clipPath>
	</defs>
	<rect id="手动.svg" width="20.000000" height="20.000000" fill="#C4C4C4" fill-opacity="0"/>
	<g clip-path="url(#clip3996_58281)">
		<path id="减去顶层" d="M10.1875 0C7.97656 0 6.1875 1.79102 6.1875 4C6.1875 5.26855 6.77734 6.39941 7.69922 7.13184L7.69922 5.6709C7.69922 5.58398 7.70703 5.49902 7.71875 5.41699C7.48047 5 7.34375 4.51562 7.34375 4C7.34375 2.42871 8.61719 1.15527 10.1875 1.15527C11.7578 1.15527 13.0312 2.42871 13.0312 4C13.0312 4.07129 13.0273 4.1416 13.0234 4.21094C13.4805 4.32031 13.8594 4.63867 14.0469 5.05859C14.1367 4.72168 14.1875 4.36621 14.1875 4C14.1875 1.79102 12.3984 0 10.1875 0Z" clip-rule="evenodd" fill="#FFFFFF" fill-opacity="1.000000" fill-rule="evenodd"/>
		<path id="path" d="M17.78 7.75L17.83 7.75C18.74 7.75 19.47 8.49 19.47 9.4L19.47 14.28C19.47 16.59 17.6 18.46 15.3 18.46L11.9 18.46C11.74 18.46 11.57 18.45 11.41 18.43C11.25 18.41 11.09 18.38 10.93 18.34C10.77 18.3 10.61 18.26 10.46 18.2C10.31 18.14 10.16 18.08 10.01 18C9.87 17.93 9.73 17.85 9.59 17.75C9.45 17.66 9.32 17.57 9.2 17.46C9.07 17.35 8.96 17.24 8.84 17.12C8.73 17 8.63 16.87 8.53 16.74L5.2 12.17C5.15 12.09 5.1 12.01 5.06 11.93C5.02 11.85 4.99 11.76 4.96 11.68C4.94 11.59 4.92 11.5 4.91 11.41C4.89 11.32 4.89 11.23 4.89 11.13C4.9 11.04 4.91 10.95 4.93 10.86C4.95 10.77 4.98 10.68 5.01 10.6C5.05 10.51 5.09 10.43 5.14 10.36C5.19 10.28 5.24 10.2 5.3 10.14L5.46 9.96C6.03 9.31 7.03 9.25 7.68 9.83C7.7 9.84 7.71 9.86 7.73 9.87L8.36 10.48C8.39 10.51 8.41 10.52 8.44 10.54C8.48 10.55 8.51 10.55 8.54 10.55C8.57 10.55 8.6 10.55 8.63 10.53C8.66 10.52 8.69 10.5 8.71 10.48C8.76 10.43 8.78 10.37 8.78 10.31L8.78 4.68C8.78 3.77 9.51 3.04 10.42 3.04L10.47 3.04C11.38 3.04 12.12 3.77 12.12 4.68L12.12 6.17C12.35 6.04 12.6 5.98 12.87 5.98L12.92 5.98C13.68 5.98 14.31 6.49 14.51 7.18C14.76 7.04 15.03 6.96 15.33 6.96L15.38 6.96C16.07 6.96 16.66 7.39 16.91 8C17.03 7.92 17.17 7.86 17.32 7.81C17.47 7.77 17.62 7.75 17.78 7.75ZM9.16 16.28C9.24 16.39 9.32 16.49 9.41 16.59C9.5 16.69 9.6 16.78 9.7 16.87C9.8 16.95 9.91 17.04 10.02 17.11C10.13 17.18 10.25 17.25 10.36 17.31C10.48 17.37 10.6 17.42 10.73 17.47C10.85 17.52 10.98 17.55 11.11 17.59C11.24 17.62 11.37 17.64 11.5 17.66C11.64 17.67 11.77 17.68 11.9 17.68L15.3 17.68C17.17 17.68 18.69 16.16 18.69 14.28L18.69 9.4C18.69 8.91 18.31 8.53 17.83 8.53L17.78 8.53C17.3 8.53 16.91 8.91 16.91 9.4L16.91 11.14C16.91 11.58 16.25 11.58 16.25 11.14L16.25 8.61C16.25 8.13 15.85 7.74 15.38 7.74L15.33 7.74C14.85 7.74 14.46 8.13 14.46 8.61L14.46 10.55C14.46 11 13.79 11 13.79 10.55L13.79 7.63C13.79 7.15 13.4 6.76 12.92 6.76L12.87 6.76C12.4 6.76 12.01 7.15 12.01 7.63L12.01 9.96C12.01 10.41 11.34 10.41 11.34 9.96L11.34 4.68C11.34 4.2 10.95 3.81 10.47 3.81L10.42 3.81C9.94 3.81 9.55 4.2 9.55 4.68L9.55 10.31C9.55 10.57 9.45 10.83 9.27 11.02C8.88 11.42 8.23 11.44 7.83 11.04L7.19 10.43C7.15 10.39 7.11 10.36 7.07 10.33C7.02 10.3 6.97 10.28 6.92 10.26C6.87 10.24 6.82 10.23 6.76 10.22C6.71 10.21 6.66 10.21 6.6 10.21C6.55 10.21 6.5 10.22 6.44 10.23C6.39 10.24 6.34 10.26 6.29 10.29C6.25 10.31 6.2 10.34 6.16 10.37C6.11 10.4 6.07 10.44 6.04 10.48L5.88 10.65C5.85 10.69 5.82 10.73 5.8 10.77C5.77 10.81 5.75 10.85 5.73 10.89C5.71 10.94 5.7 10.98 5.69 11.03C5.68 11.08 5.67 11.12 5.67 11.17C5.67 11.22 5.67 11.27 5.67 11.31C5.68 11.36 5.69 11.41 5.71 11.45C5.72 11.5 5.74 11.54 5.76 11.59C5.78 11.63 5.8 11.67 5.83 11.71L9.16 16.28Z" fill="#FFFFFF" fill-opacity="1.000000" fill-rule="nonzero"/>
		<path id="path" d="M17.83 7.75C18.74 7.75 19.47 8.49 19.47 9.4L19.47 14.28C19.47 16.59 17.6 18.46 15.3 18.46L11.9 18.46C11.74 18.46 11.57 18.45 11.41 18.43C11.25 18.41 11.09 18.38 10.93 18.34C10.77 18.3 10.61 18.26 10.46 18.2C10.31 18.14 10.16 18.08 10.01 18C9.87 17.93 9.73 17.85 9.59 17.75C9.45 17.66 9.32 17.57 9.2 17.46C9.07 17.35 8.96 17.24 8.84 17.12C8.73 17 8.63 16.87 8.53 16.74L5.2 12.17C5.15 12.09 5.1 12.01 5.06 11.93C5.02 11.85 4.99 11.76 4.96 11.68C4.94 11.59 4.92 11.5 4.91 11.41C4.89 11.32 4.89 11.23 4.89 11.13C4.9 11.04 4.91 10.95 4.93 10.86C4.95 10.77 4.98 10.68 5.01 10.6C5.05 10.51 5.09 10.43 5.14 10.36C5.19 10.28 5.24 10.2 5.3 10.14L5.46 9.96C6.03 9.31 7.03 9.25 7.68 9.83C7.7 9.84 7.71 9.86 7.73 9.87L8.36 10.48C8.39 10.51 8.41 10.52 8.44 10.54C8.48 10.55 8.51 10.55 8.54 10.55C8.57 10.55 8.6 10.55 8.63 10.53C8.66 10.52 8.69 10.5 8.71 10.48C8.76 10.43 8.78 10.37 8.78 10.31L8.78 4.68C8.78 3.77 9.51 3.04 10.42 3.04L10.47 3.04C11.38 3.04 12.12 3.77 12.12 4.68L12.12 6.17C12.35 6.04 12.6 5.98 12.87 5.98L12.92 5.98C13.68 5.98 14.31 6.49 14.51 7.18C14.76 7.04 15.03 6.96 15.33 6.96L15.38 6.96C16.07 6.96 16.66 7.39 16.91 8C17.03 7.92 17.17 7.86 17.32 7.81C17.47 7.77 17.62 7.75 17.78 7.75L17.83 7.75ZM9.41 16.59C9.5 16.69 9.6 16.78 9.7 16.87C9.8 16.95 9.91 17.04 10.02 17.11C10.13 17.18 10.25 17.25 10.36 17.31C10.48 17.37 10.6 17.42 10.73 17.47C10.85 17.52 10.98 17.55 11.11 17.59C11.24 17.62 11.37 17.64 11.5 17.66C11.64 17.67 11.77 17.68 11.9 17.68L15.3 17.68C17.17 17.68 18.69 16.16 18.69 14.28L18.69 9.4C18.69 8.91 18.31 8.53 17.83 8.53L17.78 8.53C17.3 8.53 16.91 8.91 16.91 9.4L16.91 11.14C16.91 11.58 16.25 11.58 16.25 11.14L16.25 8.61C16.25 8.13 15.85 7.74 15.38 7.74L15.33 7.74C14.85 7.74 14.46 8.13 14.46 8.61L14.46 10.55C14.46 11 13.79 11 13.79 10.55L13.79 7.63C13.79 7.15 13.4 6.76 12.92 6.76L12.87 6.76C12.4 6.76 12.01 7.15 12.01 7.63L12.01 9.96C12.01 10.41 11.34 10.41 11.34 9.96L11.34 4.68C11.34 4.2 10.95 3.81 10.47 3.81L10.42 3.81C9.94 3.81 9.55 4.2 9.55 4.68L9.55 10.31C9.55 10.57 9.45 10.83 9.27 11.02C8.88 11.42 8.23 11.44 7.83 11.04L7.19 10.43C7.15 10.39 7.11 10.36 7.07 10.33C7.02 10.3 6.97 10.28 6.92 10.26C6.87 10.24 6.82 10.23 6.76 10.22C6.71 10.21 6.66 10.21 6.6 10.21C6.55 10.21 6.5 10.22 6.44 10.23C6.39 10.24 6.34 10.26 6.29 10.29C6.25 10.31 6.2 10.34 6.16 10.37C6.11 10.4 6.07 10.44 6.04 10.48L5.88 10.65C5.85 10.69 5.82 10.73 5.8 10.77C5.77 10.81 5.75 10.85 5.73 10.89C5.71 10.94 5.7 10.98 5.69 11.03C5.68 11.08 5.67 11.12 5.67 11.17C5.67 11.22 5.67 11.27 5.67 11.31C5.68 11.36 5.69 11.41 5.71 11.45C5.72 11.5 5.74 11.54 5.76 11.59C5.78 11.63 5.8 11.67 5.83 11.71L9.16 16.28C9.24 16.39 9.32 16.49 9.41 16.59Z" stroke="#FFFFFF" stroke-opacity="1.000000" stroke-width="0.320986"/>
		<path id="矢量 646" d="M3.34 3.85L2.67 3.32L2.67 12.31C2.67 12.52 2.51 12.69 2.3 12.69C2.09 12.69 1.92 12.52 1.92 12.31L1.92 3.32L1.21 3.86C1.07 4 0.8 4 0.65 3.86C0.58 3.78 0.53 3.69 0.53 3.59C0.53 3.49 0.58 3.4 0.65 3.32L2.1 2.06C2.21 1.96 2.38 1.96 2.5 2.06L3.9 3.32C3.98 3.4 4 3.49 4 3.59C4 3.68 3.98 3.78 3.9 3.85C3.75 4 3.49 4 3.34 3.85Z" fill="#FFFFFF" fill-opacity="1.000000" fill-rule="evenodd"/>
		<path id="矢量 646" d="M2.67 3.32L2.67 12.31C2.67 12.52 2.51 12.69 2.3 12.69C2.09 12.69 1.92 12.52 1.92 12.31L1.92 3.32L1.21 3.86C1.07 4 0.8 4 0.65 3.86C0.58 3.78 0.53 3.69 0.53 3.59C0.53 3.49 0.58 3.4 0.65 3.32L2.1 2.06C2.21 1.96 2.38 1.96 2.5 2.06L3.9 3.32C3.98 3.4 4 3.49 4 3.59C4 3.68 3.98 3.78 3.9 3.85C3.75 4 3.49 4 3.34 3.85L2.67 3.32Z" stroke="#FFFFFF" stroke-opacity="1.000000" stroke-width="0.300000"/>
		<path id="矢量 646" d="M3.34 16.14L2.67 16.67L2.67 7.68C2.67 7.47 2.51 7.3 2.3 7.3C2.09 7.3 1.92 7.47 1.92 7.68L1.92 16.67L1.21 16.13C1.07 15.99 0.8 15.99 0.65 16.13C0.58 16.21 0.53 16.3 0.53 16.4C0.53 16.5 0.58 16.59 0.65 16.67L2.1 17.93C2.21 18.03 2.38 18.03 2.5 17.93L3.9 16.67C3.98 16.59 4 16.5 4 16.4C4 16.31 3.98 16.21 3.9 16.14C3.75 15.99 3.49 15.99 3.34 16.14Z" fill="#FFFFFF" fill-opacity="1.000000" fill-rule="evenodd"/>
		<path id="矢量 646" d="M2.67 16.67L2.67 7.68C2.67 7.47 2.51 7.3 2.3 7.3C2.09 7.3 1.92 7.47 1.92 7.68L1.92 16.67L1.21 16.13C1.07 15.99 0.8 15.99 0.65 16.13C0.58 16.21 0.53 16.3 0.53 16.4C0.53 16.5 0.58 16.59 0.65 16.67L2.1 17.93C2.21 18.03 2.38 18.03 2.5 17.93L3.9 16.67C3.98 16.59 4 16.5 4 16.4C4 16.31 3.98 16.21 3.9 16.14C3.75 15.99 3.49 15.99 3.34 16.14L2.67 16.67Z" stroke="#FFFFFF" stroke-opacity="1.000000" stroke-width="0.300000"/>
	</g>
</svg>
