<svg width="39.781250" height="39.780273" viewBox="0 0 39.7812 39.7803" fill="none" xmlns="http://www.w3.org/2000/svg" xmlns:xlink="http://www.w3.org/1999/xlink">
	<desc>
			Created with Pixso.
	</desc>
	<defs>
		<filter id="filter_2874_39582_dd" x="0.000000" y="0.000000" width="39.781250" height="39.780273" filterUnits="userSpaceOnUse" color-interpolation-filters="sRGB">
			<feFlood flood-opacity="0" result="BackgroundImageFix"/>
			<feColorMatrix in="SourceAlpha" type="matrix" values="0 0 0 0 0 0 0 0 0 0 0 0 0 0 0 0 0 0 127 0" result="hardAlpha"/>
			<feOffset dx="0" dy="0.951429"/>
			<feGaussianBlur stdDeviation="1.05857"/>
			<feComposite in2="hardAlpha" operator="out" k2="-1" k3="1"/>
			<feColorMatrix type="matrix" values="0 0 0 0 0.17647 0 0 0 0 0.18039 0 0 0 0 0.18039 0 0 0 0.6 0"/>
			<feBlend mode="normal" in2="BackgroundImageFix" result="effect_dropShadow_1"/>
			<feBlend mode="normal" in="SourceGraphic" in2="effect_dropShadow_1" result="shape"/>
		</filter>
		<filter id="filter_2874_39585_dd" x="0.000000" y="0.000000" width="39.781250" height="39.780273" filterUnits="userSpaceOnUse" color-interpolation-filters="sRGB">
			<feFlood flood-opacity="0" result="BackgroundImageFix"/>
			<feColorMatrix in="SourceAlpha" type="matrix" values="0 0 0 0 0 0 0 0 0 0 0 0 0 0 0 0 0 0 127 0" result="hardAlpha"/>
			<feOffset dx="0" dy="0.951429"/>
			<feGaussianBlur stdDeviation="1.05857"/>
			<feComposite in2="hardAlpha" operator="out" k2="-1" k3="1"/>
			<feColorMatrix type="matrix" values="0 0 0 0 0.17647 0 0 0 0 0.18039 0 0 0 0 0.18039 0 0 0 0.6 0"/>
			<feBlend mode="normal" in2="BackgroundImageFix" result="effect_dropShadow_1"/>
			<feBlend mode="normal" in="SourceGraphic" in2="effect_dropShadow_1" result="shape"/>
		</filter>
		<linearGradient x1="13.886045" y1="4.796879" x2="29.089613" y2="33.082596" id="paint_linear_2874_39580_0" gradientUnits="userSpaceOnUse">
			<stop stop-color="#D61212"/>
			<stop offset="0.442748" stop-color="#FF6D6D"/>
			<stop offset="0.996064" stop-color="#FFA0A0"/>
		</linearGradient>
		<linearGradient x1="19.895525" y1="3.940422" x2="19.895525" y2="37.439453" id="paint_linear_2874_39583_0" gradientUnits="userSpaceOnUse">
			<stop stop-color="#D61212"/>
			<stop offset="0.442748" stop-color="#FF6D6D"/>
			<stop offset="0.996064" stop-color="#FFA0A0"/>
		</linearGradient>
		<linearGradient x1="23.269573" y1="0.939451" x2="24.957087" y2="36.939449" id="paint_linear_2874_39586_0" gradientUnits="userSpaceOnUse">
			<stop stop-color="#FFFFFF"/>
			<stop offset="0.533202" stop-color="#789AD6"/>
			<stop offset="1.000000" stop-color="#4E668E"/>
		</linearGradient>
	</defs>
	<g opacity="0.750000">
		<rect id="画板 37400" width="36.000000" height="36.000000" transform="translate(1.894531 0.939453)" fill="#FFFFFF" fill-opacity="0"/>
		<circle id="Ellipse 1171" cx="19.898438" cy="18.939453" r="14.142858" fill="url(#paint_linear_2874_39580_0)" fill-opacity="1.000000"/>
		<path id="ON" d="M19.87 19.22C19.87 21.59 18.55 23.06 16.66 23.06C14.77 23.06 13.46 21.59 13.46 19.22C13.46 16.86 14.77 15.43 16.66 15.43C18.55 15.43 19.87 16.86 19.87 19.22ZM22.5 22.93L21.4 22.93L21.4 15.57L22.59 15.57L25.03 19.89L25.8 21.46L25.85 21.46C25.79 20.69 25.7 19.8 25.7 19L25.7 15.57L26.8 15.57L26.8 22.93L25.61 22.93L23.17 18.59L22.4 17.06L22.35 17.06C22.41 17.81 22.5 18.66 22.5 19.47L22.5 22.93ZM14.65 19.22C14.65 20.95 15.44 22.06 16.66 22.06C17.88 22.06 18.68 20.95 18.68 19.22C18.68 17.5 17.88 16.45 16.66 16.45C15.44 16.45 14.65 17.5 14.65 19.22Z" fill="#FFFFFF" fill-opacity="1.000000" fill-rule="evenodd"/>
		<g filter="url(#filter_2874_39582_dd)">
			<circle id="Ellipse 1171" cx="19.890625" cy="18.938477" r="15.428573" stroke="#124AAC" stroke-opacity="1.000000" stroke-width="2.571429"/>
		</g>
		<rect id="画板 314" width="36.000000" height="36.000000" transform="translate(1.894531 0.939453)" fill="#FFFFFF" fill-opacity="0"/>
		<circle id="Ellipse 1171" cx="19.894531" cy="18.939453" r="15.000000" fill="url(#paint_linear_2874_39583_0)" fill-opacity="1.000000"/>
		<path id="ON" d="M18.87 19.22C18.87 21.59 17.55 23.06 15.66 23.06C13.77 23.06 12.46 21.59 12.46 19.22C12.46 16.86 13.77 15.43 15.66 15.43C17.55 15.43 18.87 16.86 18.87 19.22ZM21.5 22.93L20.4 22.93L20.4 15.57L21.59 15.57L24.03 19.89L24.8 21.46L24.85 21.46C24.79 20.69 24.7 19.8 24.7 19L24.7 15.57L25.8 15.57L25.8 22.93L24.61 22.93L22.17 18.59L21.4 17.06L21.35 17.06C21.41 17.81 21.5 18.66 21.5 19.47L21.5 22.93ZM13.65 19.22C13.65 20.95 14.44 22.06 15.66 22.06C16.88 22.06 17.68 20.95 17.68 19.22C17.68 17.5 16.88 16.45 15.66 16.45C14.44 16.45 13.65 17.5 13.65 19.22Z" fill="#FFFFFF" fill-opacity="1.000000" fill-rule="evenodd"/>
		<g filter="url(#filter_2874_39585_dd)">
			<circle id="Ellipse 1171" cx="19.890625" cy="18.938477" r="15.714287" stroke="#124AAC" stroke-opacity="1.000000" stroke-width="2.000000"/>
		</g>
		<circle id="Ellipse 1171" cx="19.894531" cy="18.939453" r="17.000000" stroke="url(#paint_linear_2874_39586_0)" stroke-opacity="1.000000" stroke-width="2.000000"/>
	</g>
</svg>
