<svg width="24.000000" height="24.000000" viewBox="0 0 24 24" fill="none" xmlns="http://www.w3.org/2000/svg" xmlns:xlink="http://www.w3.org/1999/xlink">
	<desc>
			Created with Pixso.
	</desc>
	<defs/>
	<path id="toast_icon_right copy 2" d="M12 22.5C6.2 22.5 1.5 17.79 1.5 12C1.5 6.2 6.2 1.5 12 1.5C17.79 1.5 22.5 6.2 22.5 12C22.5 17.79 17.79 22.5 12 22.5Z" fill="#27B67B" fill-opacity="1.000000" fill-rule="evenodd"/>
	<path id="Vector 636" d="M6.53 12.64L9.74 16.53C10.05 16.9 10.62 16.9 10.92 16.53L17.56 8.37C17.81 8.06 17.8 7.62 17.53 7.34C17.22 7.01 16.71 7.01 16.4 7.32L10.46 13.35C10.39 13.43 10.27 13.43 10.2 13.37L7.85 11.35C7.49 11.03 6.93 11.05 6.59 11.4C6.25 11.73 6.23 12.27 6.53 12.64Z" fill="#FFFFFF" fill-opacity="1.000000" fill-rule="evenodd"/>
	<path id="Vector 636" d="M9.74 16.53C10.05 16.9 10.62 16.9 10.92 16.53L17.56 8.37C17.81 8.06 17.8 7.62 17.53 7.34C17.22 7.01 16.71 7.01 16.4 7.32L10.46 13.35C10.39 13.43 10.27 13.43 10.2 13.37L7.85 11.35C7.49 11.03 6.93 11.05 6.59 11.4C6.25 11.73 6.23 12.27 6.53 12.64L9.74 16.53Z" stroke="#FFFFFF" stroke-opacity="0" stroke-width="0.000000"/>
</svg>
