<svg width="140.632812" height="20.722656" viewBox="0 0 140.633 20.7227" fill="none" xmlns="http://www.w3.org/2000/svg" xmlns:xlink="http://www.w3.org/1999/xlink">
	<desc>
			Created with Pixso.
	</desc>
	<defs/>
	<g opacity="0.900000">
		<path id="path" d="M45.08 2.82C43.21 0.97 40.64 0 37.64 0C30.46 0 27.19 5.42 27.19 10.47C27.19 13.21 28.1 15.73 29.74 17.55C31.61 19.62 34.34 20.72 37.64 20.72C40.93 20.72 43.65 19.61 45.51 17.5C47.13 15.67 48.04 13.17 48.07 10.44C48.1 7.51 47.01 4.74 45.08 2.82ZM33.01 5.22C34.16 4.07 35.69 3.49 37.58 3.49C39.44 3.49 40.96 4.06 42.1 5.19C43.35 6.44 44.05 8.33 44.02 10.37C43.96 13.55 42.24 16.95 37.58 16.95C32.94 16.95 31.19 13.57 31.1 10.4C31.05 8.37 31.75 6.49 33.01 5.22ZM114.33 0C117.03 0 119.52 0.96 121.53 2.79L121.79 3.03L121.88 3.12L119.18 5.68L119.09 5.59C117.86 4.42 116.18 3.78 114.33 3.78C112.34 3.78 110.65 4.4 109.45 5.59C108.22 6.79 107.53 8.58 107.55 10.47C107.57 13.62 109.37 16.99 114.33 16.99C116.06 16.99 117.85 16.32 119.09 15.22L119.29 15.04L119.38 14.95L122.14 17.68L122.05 17.76C120.05 19.7 117.38 20.72 114.33 20.72C110.87 20.72 108.03 19.62 106.13 17.53C104.49 15.73 103.58 13.22 103.56 10.47C103.54 7.54 104.64 4.78 106.57 2.88C108.49 0.99 111.18 0 114.33 0ZM100.93 0.53L100.93 20.44L99.35 20.44C98.89 20.44 98.48 20.26 98.19 19.96L98.09 19.84L88.03 7.44L88.03 20.44L83.98 20.44L83.98 0.56L86.18 0.56C86.83 0.56 87.41 0.84 87.82 1.28L87.92 1.4L96.89 12.5L96.89 0.53L100.93 0.53ZM24.57 0.53L24.57 20.44L22.98 20.44C22.53 20.44 22.12 20.26 21.83 19.96L21.73 19.84L11.66 7.44L11.66 20.44L7.62 20.44L7.62 0.56L9.81 0.56L9.99 0.57C10.56 0.61 11.07 0.87 11.44 1.27L11.55 1.4L20.53 12.5L20.53 0.53L24.57 0.53ZM140.63 0.53L140.63 4L133.02 4C131.14 4 129.73 4.32 128.87 5.29C128.24 5.99 127.92 7.09 127.82 8.35L127.8 8.63L139.97 8.63L139.97 12.33L127.8 12.33C127.88 13.71 128.19 14.91 128.87 15.67C129.69 16.58 130.99 16.92 132.71 16.95L133.02 16.95L140.63 16.95L140.63 20.42L132.92 20.42C125.94 20.42 123.95 17.85 123.89 11.05L123.89 10.22C123.89 3.29 125.78 0.62 132.6 0.53L132.92 0.53L140.63 0.53ZM73.14 0.53L82.26 20.41L77.85 20.41L76.16 16.71L65.72 16.71L67.41 13.01L74.53 13.01L71.02 5.15L73.14 0.53ZM4.01 0.53L4.01 20.41L0 20.41L0 0.53L4.01 0.53ZM52.25 0.53L58.89 15.72L65.54 0.53L70.06 0.53L61.52 19.14C61.2 19.84 60.51 20.34 59.7 20.4L59.52 20.41L58.26 20.41C57.43 20.41 56.71 19.95 56.34 19.29L56.26 19.14L47.73 0.53L52.25 0.53Z" fill="#FFFFFF" fill-opacity="1.000000" fill-rule="evenodd"/>
	</g>
</svg>
