<svg width="16.640625" height="17.910156" viewBox="0 0 16.6406 17.9102" fill="none" xmlns="http://www.w3.org/2000/svg" xmlns:xlink="http://www.w3.org/1999/xlink">
	<desc>
			Created with Pixso.
	</desc>
	<defs/>
	<path id="矢量 151" d="M0.35 10.41L7.96 15.92L10.48 17.74C10.53 17.78 10.59 17.81 10.64 17.83C10.69 17.85 10.75 17.87 10.8 17.88C10.85 17.9 10.9 17.9 10.96 17.91C11.02 17.91 11.07 17.91 11.14 17.9C11.19 17.89 11.25 17.87 11.3 17.85C11.35 17.83 11.4 17.81 11.45 17.78C11.5 17.75 11.53 17.72 11.57 17.68C11.62 17.64 11.67 17.6 11.71 17.54L16.47 10.96C16.5 10.91 16.53 10.86 16.57 10.8C16.58 10.75 16.6 10.7 16.61 10.65C16.63 10.59 16.64 10.54 16.64 10.49C16.64 10.43 16.64 10.37 16.63 10.31C16.61 10.25 16.6 10.2 16.58 10.14C16.56 10.09 16.53 10.04 16.51 10C16.48 9.95 16.45 9.91 16.41 9.87C16.37 9.82 16.32 9.78 16.28 9.74L13.44 7.69L16.22 3.84C16.29 3.75 16.35 3.66 16.39 3.56C16.42 3.48 16.45 3.39 16.47 3.3C16.5 3.21 16.5 3.12 16.51 3.03C16.51 2.93 16.51 2.83 16.49 2.73C16.47 2.62 16.45 2.53 16.42 2.43C16.38 2.35 16.34 2.26 16.29 2.18C16.25 2.11 16.19 2.03 16.14 1.97C16.06 1.89 15.98 1.81 15.89 1.75L13.86 0.28C13.78 0.22 13.68 0.16 13.58 0.12C13.5 0.08 13.41 0.05 13.32 0.03C13.23 0.01 13.14 0 13.05 0C12.95 -0.01 12.85 0 12.75 0.01C12.64 0.03 12.55 0.06 12.46 0.09C12.37 0.12 12.28 0.16 12.21 0.21C12.13 0.26 12.06 0.31 11.99 0.37C11.91 0.44 11.84 0.53 11.77 0.62L8.99 4.46L6.15 2.41C6.1 2.37 6.04 2.34 5.99 2.32C5.94 2.29 5.89 2.28 5.83 2.26C5.78 2.25 5.73 2.25 5.67 2.25C5.61 2.24 5.56 2.25 5.5 2.25C5.44 2.26 5.39 2.28 5.33 2.3C5.28 2.32 5.23 2.34 5.18 2.37C5.14 2.4 5.1 2.43 5.05 2.47C5 2.51 4.96 2.55 4.92 2.6L0.16 9.19C0.13 9.24 0.1 9.29 0.07 9.35C0.05 9.4 0.03 9.45 0.02 9.5C0 9.55 0 9.61 0 9.66C0 9.72 0 9.78 0 9.84C0.02 9.9 0.03 9.95 0.05 10.01C0.07 10.06 0.1 10.1 0.12 10.15C0.15 10.2 0.18 10.24 0.21 10.28C0.26 10.33 0.31 10.37 0.35 10.41ZM9.38 6.91L5.83 4.34L5.03 5.45L13.73 11.76L14.53 10.65L11 8.08L14.66 3.02L13.04 1.84L9.38 6.91ZM3.21 10.31L2.09 9.5L4 6.87L12.71 13.18L10.8 15.81L9.68 15L10.27 14.19C10.31 14.14 10.34 14.09 10.36 14.03C10.39 13.98 10.4 13.93 10.42 13.88C10.42 13.82 10.43 13.77 10.44 13.72C10.44 13.66 10.43 13.6 10.42 13.54C10.42 13.48 10.4 13.42 10.39 13.37C10.36 13.32 10.34 13.27 10.32 13.23C10.28 13.18 10.25 13.14 10.21 13.1C10.17 13.05 10.13 13.01 10.07 12.97C10.03 12.93 9.97 12.9 9.91 12.88C9.86 12.86 9.82 12.84 9.76 12.83C9.71 12.82 9.65 12.81 9.6 12.81C9.54 12.8 9.49 12.81 9.42 12.82C9.36 12.83 9.31 12.84 9.25 12.86C9.21 12.88 9.16 12.9 9.11 12.93C9.07 12.96 9.02 12.99 8.98 13.03C8.93 13.07 8.89 13.11 8.85 13.17L8.27 13.98L7.15 13.17L8.11 11.85C8.14 11.8 8.17 11.75 8.21 11.69C8.22 11.64 8.24 11.59 8.25 11.54C8.27 11.48 8.27 11.43 8.28 11.38C8.28 11.32 8.28 11.26 8.26 11.2C8.25 11.14 8.24 11.09 8.22 11.03C8.2 10.98 8.17 10.93 8.15 10.89C8.12 10.84 8.09 10.8 8.05 10.76C8.01 10.71 7.96 10.67 7.91 10.63C7.86 10.59 7.81 10.56 7.75 10.54C7.7 10.52 7.65 10.5 7.6 10.49C7.54 10.48 7.49 10.47 7.44 10.47C7.38 10.46 7.32 10.47 7.26 10.48C7.21 10.49 7.14 10.5 7.09 10.52C7.04 10.54 7 10.56 6.95 10.59C6.9 10.62 6.85 10.65 6.82 10.69C6.77 10.73 6.73 10.78 6.69 10.83L5.74 12.14L4.62 11.34L5.21 10.53C5.25 10.48 5.28 10.42 5.31 10.36C5.32 10.31 5.34 10.26 5.35 10.21C5.37 10.16 5.38 10.1 5.38 10.05C5.38 9.99 5.38 9.93 5.36 9.87C5.35 9.82 5.34 9.76 5.32 9.71C5.3 9.66 5.28 9.61 5.25 9.56C5.22 9.51 5.19 9.47 5.15 9.43C5.11 9.38 5.07 9.34 5.02 9.3C4.96 9.27 4.91 9.24 4.85 9.21C4.8 9.19 4.75 9.17 4.7 9.16C4.64 9.15 4.6 9.14 4.54 9.14C4.48 9.14 4.42 9.14 4.36 9.15C4.31 9.16 4.25 9.17 4.19 9.19C4.14 9.21 4.1 9.24 4.05 9.26C4 9.29 3.96 9.33 3.92 9.36C3.87 9.4 3.83 9.45 3.79 9.5L3.21 10.31Z" fill="#454E66" fill-opacity="1.000000" fill-rule="evenodd"/>
</svg>
