<svg width="12.578125" height="12.585938" viewBox="0 0 12.5781 12.5859" fill="none" xmlns="http://www.w3.org/2000/svg" xmlns:xlink="http://www.w3.org/1999/xlink">
	<desc>
			Created with Pixso.
	</desc>
	<defs/>
	<path id="Vector 567 (Stroke)" d="M4.86 6.29L0.28 1.7C-0.11 1.31 -0.11 0.68 0.28 0.29C0.67 -0.1 1.31 -0.1 1.7 0.29L6.28 4.87L10.86 0.29C11.25 -0.1 11.89 -0.1 12.28 0.29C12.67 0.68 12.67 1.31 12.28 1.7L7.7 6.29L12.28 10.87C12.67 11.26 12.67 11.9 12.28 12.29C11.89 12.68 11.25 12.68 10.86 12.29L6.28 7.7L1.7 12.29C1.31 12.68 0.67 12.68 0.28 12.29C-0.11 11.9 -0.11 11.26 0.28 10.87L4.86 6.29Z" fill="#454E66" fill-opacity="1.000000" fill-rule="evenodd"/>
</svg>
