<svg width="20.000000" height="20.000000" viewBox="0 0 20 20" fill="none" xmlns="http://www.w3.org/2000/svg" xmlns:xlink="http://www.w3.org/1999/xlink">
	<desc>
			Created with Pixso.
	</desc>
	<defs>
		<clipPath id="clip4885_66663">
			<rect id="大头钉" width="20.000000" height="20.000000" fill="white" fill-opacity="0"/>
		</clipPath>
	</defs>
	<g clip-path="url(#clip4885_66663)">
		<path id="path" d="M4.46 7.29C5.56 6.19 6.86 6.22 8.28 7L13.59 4.06L13.29 1.99L18 6.7L15.94 6.41L13 11.71C13.74 13.23 13.81 14.44 12.71 15.54C12.71 15.54 10.93 13.76 9.46 12.3L2.68 17.31L7.68 10.51C6.21 9.05 4.46 7.29 4.46 7.29Z" fill="#000000" fill-opacity="0" fill-rule="nonzero"/>
		<path id="path" d="M8.28 7L13.59 4.06L13.29 1.99L18 6.7L15.94 6.41L13 11.71C13.74 13.23 13.81 14.44 12.71 15.54C12.71 15.54 10.93 13.76 9.46 12.3L2.68 17.31L7.68 10.51C6.21 9.05 4.46 7.29 4.46 7.29C5.56 6.19 6.86 6.22 8.28 7Z" stroke="#454E66" stroke-opacity="1.000000" stroke-width="1.700000" stroke-linejoin="round"/>
		<path id="path" d="M2.42 5.65C2.05 5.28 2.03 4.67 2.39 4.28C2.76 3.86 3.42 3.84 3.82 4.24L16.16 16.51C16.51 16.86 16.53 17.42 16.2 17.79C15.84 18.18 15.24 18.2 14.85 17.83L2.42 5.65Z" fill="#454E66" fill-opacity="1.000000" fill-rule="nonzero"/>
		<path id="path" d="M17.11 16.1C17.04 16 16.96 15.89 16.86 15.8L4.53 3.53C4.42 3.43 4.31 3.34 4.18 3.26C4.07 3.19 3.96 3.13 3.84 3.09C3.72 3.04 3.6 3 3.47 2.98C3.34 2.96 3.21 2.95 3.07 2.95C2.92 2.96 2.79 2.98 2.66 3.01C2.53 3.04 2.42 3.08 2.3 3.13C2.18 3.18 2.07 3.25 1.96 3.32C1.85 3.41 1.74 3.5 1.64 3.61C1.55 3.72 1.47 3.82 1.4 3.94C1.34 4.05 1.29 4.16 1.25 4.27C1.21 4.39 1.17 4.5 1.16 4.62C1.14 4.75 1.13 4.88 1.14 5C1.14 5.14 1.15 5.26 1.18 5.39C1.21 5.5 1.25 5.62 1.29 5.73C1.34 5.84 1.4 5.95 1.47 6.05C1.54 6.16 1.63 6.27 1.73 6.36L14.16 18.54C14.26 18.64 14.37 18.73 14.49 18.8C14.59 18.87 14.7 18.92 14.82 18.97C14.93 19.01 15.06 19.05 15.17 19.07C15.3 19.09 15.43 19.1 15.57 19.09C15.7 19.09 15.83 19.07 15.96 19.04C16.07 19.01 16.19 18.97 16.31 18.92C16.42 18.87 16.53 18.81 16.63 18.73C16.74 18.65 16.85 18.56 16.94 18.46C17.03 18.36 17.1 18.25 17.17 18.14C17.23 18.04 17.28 17.93 17.32 17.82C17.36 17.71 17.39 17.6 17.41 17.48C17.42 17.36 17.43 17.24 17.43 17.11C17.42 16.99 17.42 16.87 17.39 16.75C17.36 16.63 17.32 16.52 17.28 16.41C17.23 16.3 17.17 16.2 17.11 16.1ZM2.42 5.65C2.05 5.28 2.03 4.67 2.39 4.28C2.76 3.86 3.42 3.84 3.82 4.24L16.16 16.51C16.51 16.86 16.53 17.42 16.2 17.79C15.84 18.18 15.24 18.2 14.85 17.83L2.42 5.65Z" fill="#D8D8E3" fill-opacity="1.000000" fill-rule="evenodd"/>
	</g>
</svg>
