<svg width="17.085938" height="17.070312" viewBox="0 0 17.0859 17.0703" fill="none" xmlns="http://www.w3.org/2000/svg" xmlns:xlink="http://www.w3.org/1999/xlink">
	<desc>
			Created with Pixso.
	</desc>
	<defs/>
	<path id="path" d="M2.64 6.15C3.74 5.05 5.04 5.08 6.46 5.85L11.77 2.91L11.47 0.85L16.18 5.56L14.12 5.26L11.17 10.57C11.92 12.08 11.99 13.3 10.89 14.4C10.89 14.4 9.11 12.62 7.64 11.15L0.86 16.17L5.86 9.37C4.39 7.91 2.64 6.15 2.64 6.15Z" fill="#000000" fill-opacity="0" fill-rule="nonzero"/>
	<path id="path" d="M6.46 5.85L11.77 2.91L11.47 0.85L16.18 5.56L14.12 5.26L11.17 10.57C11.92 12.08 11.99 13.3 10.89 14.4C10.89 14.4 9.11 12.62 7.64 11.15L0.86 16.17L5.86 9.37C4.39 7.91 2.64 6.15 2.64 6.15C3.74 5.05 5.04 5.08 6.46 5.85Z" stroke="#454E66" stroke-opacity="1.000000" stroke-width="1.700000" stroke-linejoin="round"/>
</svg>
