<svg width="268.000000" height="52.000000" viewBox="0 0 268 52" fill="none" xmlns="http://www.w3.org/2000/svg" xmlns:xlink="http://www.w3.org/1999/xlink">
	<desc>
			Created with Pixso.
	</desc>
	<defs>
		<clipPath id="clip1910_18734">
			<rect id="logo" width="268.800018" height="51.200001" transform="translate(-0.800781 0.000000)" fill="white" fill-opacity="0"/>
		</clipPath>
	</defs>
	<g clip-path="url(#clip1910_18734)">
		<path id="INOVANCE" d="M248.74 15.11C248.74 15.11 241.36 15.07 241.36 23.7L263.49 23.7L263.49 30.36L241.36 30.36C241.36 30.36 241.09 38.2 248.09 38.95L264.58 38.95L264.58 45.17L248.74 45.17C248.74 45.17 234.38 46.5 234.42 31.22L234.42 23.27C234.42 23.27 233 9.26 248.09 8.67L264.79 8.67L264.79 15.11L248.74 15.11ZM216.41 39.38C219.97 39.31 223.38 37.93 225.96 35.51C225.96 35.51 231.23 40.2 231.17 40.45C231.11 40.7 226.55 46.24 216.85 46.03C205.72 45.8 197.32 39.38 197.32 26.71C197.32 14.03 207.54 8.14 216.41 8.02C219.02 7.99 221.61 8.46 224.03 9.42C226.45 10.38 228.65 11.8 230.52 13.61L225.74 18.33C223.73 16.4 220.74 15.04 216.42 14.9C212.09 14.75 204.28 18.37 204.48 26.92C204.69 35.47 210.54 39.42 216.41 39.38ZM187.78 44.53L169.12 21.55L169.12 45.17L161.74 45.17L161.74 8.67L166.08 8.67C166.55 8.71 167 8.84 167.41 9.07C167.82 9.29 168.18 9.59 168.47 9.95L185.17 30.57L185.17 8.67L192.55 8.67L192.55 45.17L189.3 45.17C188.73 45.14 188.2 44.91 187.78 44.53ZM147.42 38.3L128.55 38.3L131.59 31.64L144.61 31.64L138.31 17.26L142 8.67L158.49 45.17L150.68 45.17L147.42 38.3ZM117.7 45.17L114.45 45.17C113.82 45.11 113.22 44.91 112.7 44.57C112.17 44.23 111.73 43.78 111.41 43.24C110.28 41.38 95.79 8.66 95.79 8.66L104.04 8.66L116.18 36.58L128.12 8.67L136.36 8.67L121.17 42.17C121.17 42.17 119.95 45.17 117.7 45.17ZM77.14 46.03C75.97 45.93 59.1 46.4 58.48 26.92C57.68 20.12 64.15 7.71 76.92 8.02C76.92 8.02 94.83 6.49 96.44 26.71C95.69 45.57 79.99 46.29 77.14 46.03ZM77.57 14.68C73.39 14.12 65.65 17.56 65.64 26.49C65.63 35.42 70.52 39.23 77.14 39.38C86.04 39.61 89.01 33.38 89.29 26.28C87.76 13.5 77.57 14.68 77.57 14.68ZM48.93 44.53L30.27 21.55L30.27 45.17L22.9 45.17L22.9 8.67L27.23 8.67C27.7 8.71 28.15 8.84 28.56 9.07C28.97 9.29 29.33 9.59 29.62 9.95L46.33 30.57L46.33 8.67L53.7 8.67L53.7 45.17L50.45 45.17C49.88 45.14 49.35 44.91 48.93 44.53L48.93 44.53ZM8.79 8.67L16.17 8.67L16.17 45.17L8.79 45.17L8.79 8.67Z" fill="#0099F2" fill-opacity="1.000000" fill-rule="evenodd"/>
	</g>
</svg>
