<svg width="20.000000" height="20.000000" viewBox="0 0 20 20" fill="none" xmlns="http://www.w3.org/2000/svg" xmlns:xlink="http://www.w3.org/1999/xlink">
	<desc>
			Created with Pixso.
	</desc>
	<defs>
		<clipPath id="clip2842_39674">
			<rect id="手动.svg" width="20.000000" height="20.000000" fill="white" fill-opacity="0"/>
		</clipPath>
	</defs>
	<rect id="手动.svg" width="20.000000" height="20.000000" fill="#C4C4C4" fill-opacity="0"/>
	<g clip-path="url(#clip2842_39674)">
		<path id="path" d="M15.59 7L15.64 7C16.55 7 17.28 7.74 17.28 8.64L17.28 13.53C17.28 15.84 15.42 17.71 13.12 17.71L9.71 17.71C9.55 17.7 9.39 17.7 9.23 17.68C9.06 17.66 8.9 17.63 8.74 17.59C8.58 17.55 8.42 17.5 8.27 17.45C8.12 17.39 7.97 17.33 7.82 17.25C7.68 17.18 7.54 17.09 7.4 17C7.26 16.91 7.13 16.81 7.01 16.71C6.89 16.6 6.77 16.49 6.66 16.37C6.55 16.25 6.44 16.12 6.34 15.99L3.01 11.42C2.96 11.34 2.92 11.26 2.87 11.18C2.83 11.1 2.8 11.01 2.77 10.93C2.75 10.84 2.73 10.75 2.72 10.66C2.71 10.57 2.7 10.47 2.71 10.38C2.71 10.29 2.73 10.2 2.75 10.11C2.76 10.02 2.79 9.93 2.83 9.85C2.86 9.76 2.9 9.68 2.95 9.6C3 9.53 3.05 9.45 3.12 9.38L3.27 9.21C3.85 8.56 4.84 8.5 5.5 9.08C5.51 9.09 5.53 9.11 5.54 9.12L6.17 9.73C6.2 9.76 6.23 9.77 6.26 9.79C6.29 9.8 6.32 9.8 6.35 9.8C6.38 9.8 6.41 9.79 6.44 9.78C6.48 9.77 6.5 9.75 6.52 9.73C6.57 9.68 6.59 9.62 6.59 9.56L6.59 3.93C6.59 3.02 7.33 2.28 8.23 2.28L8.28 2.28C9.19 2.28 9.93 3.02 9.93 3.93L9.93 5.42C10.16 5.29 10.42 5.23 10.69 5.23L10.74 5.23C11.49 5.23 12.12 5.74 12.32 6.43C12.57 6.29 12.85 6.21 13.14 6.21L13.19 6.21C13.88 6.21 14.48 6.64 14.72 7.25C14.85 7.17 14.99 7.11 15.14 7.06C15.28 7.02 15.44 7 15.59 7ZM6.97 15.53C7.05 15.64 7.14 15.74 7.23 15.84C7.32 15.94 7.41 16.03 7.51 16.12C7.61 16.2 7.72 16.28 7.83 16.36C7.94 16.43 8.06 16.5 8.17 16.56C8.3 16.62 8.42 16.67 8.54 16.72C8.67 16.77 8.79 16.8 8.92 16.83C9.05 16.87 9.18 16.89 9.32 16.91C9.45 16.92 9.58 16.93 9.71 16.93L13.12 16.93C14.99 16.93 16.51 15.41 16.51 13.53L16.51 8.64C16.51 8.16 16.12 7.78 15.64 7.78L15.59 7.78C15.11 7.78 14.73 8.16 14.73 8.64L14.73 10.39C14.73 10.83 14.06 10.83 14.06 10.39L14.06 7.86C14.06 7.38 13.67 6.99 13.19 6.99L13.14 6.99C12.66 6.99 12.27 7.38 12.27 7.86L12.27 9.8C12.27 10.24 11.6 10.24 11.6 9.8L11.6 6.88C11.6 6.4 11.21 6.01 10.74 6.01L10.69 6.01C10.21 6.01 9.82 6.4 9.82 6.88L9.82 9.21C9.82 9.66 9.15 9.66 9.15 9.21L9.15 3.93C9.15 3.45 8.76 3.06 8.28 3.06L8.23 3.06C7.76 3.06 7.37 3.45 7.37 3.93L7.37 9.56C7.37 9.82 7.26 10.08 7.08 10.27C6.69 10.67 6.05 10.68 5.64 10.29L5 9.68C4.96 9.64 4.92 9.61 4.88 9.58C4.83 9.55 4.78 9.53 4.73 9.51C4.68 9.49 4.63 9.48 4.58 9.47C4.52 9.46 4.47 9.45 4.42 9.46C4.36 9.46 4.31 9.47 4.26 9.48C4.21 9.49 4.16 9.51 4.1 9.53C4.06 9.56 4.01 9.58 3.97 9.62C3.92 9.65 3.89 9.69 3.85 9.73L3.69 9.9C3.66 9.94 3.64 9.97 3.61 10.01C3.58 10.06 3.56 10.1 3.55 10.14C3.53 10.19 3.51 10.23 3.5 10.28C3.49 10.33 3.48 10.37 3.48 10.42C3.48 10.47 3.48 10.52 3.49 10.56C3.5 10.61 3.5 10.66 3.52 10.7C3.53 10.75 3.55 10.79 3.57 10.84C3.59 10.88 3.62 10.92 3.64 10.96L6.97 15.53Z" fill="#93ACD7" fill-opacity="1.000000" fill-rule="nonzero"/>
		<path id="path" d="M15.64 7C16.55 7 17.28 7.74 17.28 8.64L17.28 13.53C17.28 15.84 15.42 17.71 13.12 17.71L9.71 17.71C9.55 17.7 9.39 17.7 9.23 17.68C9.06 17.66 8.9 17.63 8.74 17.59C8.58 17.55 8.42 17.5 8.27 17.45C8.12 17.39 7.97 17.33 7.82 17.25C7.68 17.18 7.54 17.09 7.4 17C7.26 16.91 7.13 16.81 7.01 16.71C6.89 16.6 6.77 16.49 6.66 16.37C6.55 16.25 6.44 16.12 6.34 15.99L3.01 11.42C2.96 11.34 2.92 11.26 2.87 11.18C2.83 11.1 2.8 11.01 2.77 10.93C2.75 10.84 2.73 10.75 2.72 10.66C2.71 10.57 2.7 10.47 2.71 10.38C2.71 10.29 2.73 10.2 2.75 10.11C2.76 10.02 2.79 9.93 2.83 9.85C2.86 9.76 2.9 9.68 2.95 9.6C3 9.53 3.05 9.45 3.12 9.38L3.27 9.21C3.85 8.56 4.84 8.5 5.5 9.08C5.51 9.09 5.53 9.11 5.54 9.12L6.17 9.73C6.2 9.76 6.23 9.77 6.26 9.79C6.29 9.8 6.32 9.8 6.35 9.8C6.38 9.8 6.41 9.79 6.44 9.78C6.48 9.77 6.5 9.75 6.52 9.73C6.57 9.68 6.59 9.62 6.59 9.56L6.59 3.93C6.59 3.02 7.33 2.28 8.23 2.28L8.28 2.28C9.19 2.28 9.93 3.02 9.93 3.93L9.93 5.42C10.16 5.29 10.42 5.23 10.69 5.23L10.74 5.23C11.49 5.23 12.12 5.74 12.32 6.43C12.57 6.29 12.85 6.21 13.14 6.21L13.19 6.21C13.88 6.21 14.48 6.64 14.72 7.25C14.85 7.17 14.99 7.11 15.14 7.06C15.28 7.02 15.44 7 15.59 7L15.64 7ZM7.23 15.84C7.32 15.94 7.41 16.03 7.51 16.12C7.61 16.2 7.72 16.28 7.83 16.36C7.94 16.43 8.06 16.5 8.17 16.56C8.3 16.62 8.42 16.67 8.54 16.72C8.67 16.77 8.79 16.8 8.92 16.83C9.05 16.87 9.18 16.89 9.32 16.91C9.45 16.92 9.58 16.93 9.71 16.93L13.12 16.93C14.99 16.93 16.51 15.41 16.51 13.53L16.51 8.64C16.51 8.16 16.12 7.78 15.64 7.78L15.59 7.78C15.11 7.78 14.73 8.16 14.73 8.64L14.73 10.39C14.73 10.83 14.06 10.83 14.06 10.39L14.06 7.86C14.06 7.38 13.67 6.99 13.19 6.99L13.14 6.99C12.66 6.99 12.27 7.38 12.27 7.86L12.27 9.8C12.27 10.24 11.6 10.24 11.6 9.8L11.6 6.88C11.6 6.4 11.21 6.01 10.74 6.01L10.69 6.01C10.21 6.01 9.82 6.4 9.82 6.88L9.82 9.21C9.82 9.66 9.15 9.66 9.15 9.21L9.15 3.93C9.15 3.45 8.76 3.06 8.28 3.06L8.23 3.06C7.76 3.06 7.37 3.45 7.37 3.93L7.37 9.56C7.37 9.82 7.26 10.08 7.08 10.27C6.69 10.67 6.05 10.68 5.64 10.29L5 9.68C4.96 9.64 4.92 9.61 4.88 9.58C4.83 9.55 4.78 9.53 4.73 9.51C4.68 9.49 4.63 9.48 4.58 9.47C4.52 9.46 4.47 9.45 4.42 9.46C4.36 9.46 4.31 9.47 4.26 9.48C4.21 9.49 4.16 9.51 4.1 9.53C4.06 9.56 4.01 9.58 3.97 9.62C3.92 9.65 3.89 9.69 3.85 9.73L3.69 9.9C3.66 9.94 3.64 9.97 3.61 10.01C3.58 10.06 3.56 10.1 3.55 10.14C3.53 10.19 3.51 10.23 3.5 10.28C3.49 10.33 3.48 10.37 3.48 10.42C3.48 10.47 3.48 10.52 3.49 10.56C3.5 10.61 3.5 10.66 3.52 10.7C3.53 10.75 3.55 10.79 3.57 10.84C3.59 10.88 3.62 10.92 3.64 10.96L6.97 15.53C7.05 15.64 7.14 15.74 7.23 15.84Z" stroke="#93ACD7" stroke-opacity="1.000000" stroke-width="0.320986"/>
	</g>
</svg>
