<svg width="20.000000" height="20.000000" viewBox="0 0 20 20" fill="none" xmlns="http://www.w3.org/2000/svg" xmlns:xlink="http://www.w3.org/1999/xlink">
	<desc>
			Created with Pixso.
	</desc>
	<defs>
		<clipPath id="clip2874_39610">
			<rect id="手动高" width="20.000000" height="20.000000" fill="white" fill-opacity="0"/>
		</clipPath>
	</defs>
	<g clip-path="url(#clip2874_39610)">
		<path id="矢量 20" d="M15.99 3.48L16.41 3.06L2.38 3.06C2.17 3.06 2 2.89 2 2.68C2 2.47 2.17 2.31 2.38 2.31L16.41 2.31L15.99 1.89C15.92 1.81 15.88 1.72 15.88 1.62C15.88 1.53 15.92 1.43 15.99 1.36C16.14 1.21 16.37 1.21 16.52 1.36L17.85 2.68L16.52 4.01C16.37 4.16 16.14 4.16 15.99 4.01C15.92 3.94 15.88 3.84 15.88 3.75C15.88 3.65 15.92 3.55 15.99 3.48ZM3.17 6.17L2.75 5.75L2.75 14.75C2.75 14.96 2.59 15.12 2.38 15.12C2.17 15.12 2 14.96 2 14.75L2 5.75L1.58 6.17C1.43 6.32 1.2 6.32 1.05 6.17C0.98 6.1 0.94 6 0.94 5.91C0.94 5.81 0.98 5.71 1.05 5.64L2.38 4.32L3.7 5.64C3.78 5.71 3.82 5.81 3.82 5.91C3.82 6 3.78 6.1 3.7 6.17C3.55 6.32 3.32 6.32 3.17 6.17ZM17 13.5L17 4.88C17 4.67 17.16 4.5 17.37 4.5C17.58 4.5 17.75 4.67 17.75 4.88L17.75 13.5L18.17 13.08C18.32 12.93 18.55 12.93 18.7 13.08C18.77 13.16 18.81 13.25 18.81 13.35C18.81 13.44 18.77 13.54 18.7 13.61L17.37 14.94L16.05 13.61C15.98 13.54 15.94 13.44 15.94 13.35C15.94 13.25 15.98 13.16 16.05 13.08C16.2 12.93 16.43 12.93 16.58 13.08L17 13.5ZM3.7 15.76L3.28 16.18L17.39 16.18C17.6 16.18 17.77 16.35 17.77 16.56C17.77 16.77 17.6 16.93 17.39 16.93L3.28 16.93L3.7 17.35C3.78 17.43 3.81 17.52 3.81 17.62C3.81 17.71 3.78 17.81 3.7 17.88C3.55 18.03 3.32 18.03 3.17 17.88L1.84 16.56L3.17 15.23C3.32 15.08 3.55 15.08 3.7 15.23C3.78 15.3 3.81 15.4 3.81 15.5C3.81 15.59 3.78 15.69 3.7 15.76Z" fill="#FFFFFF" fill-opacity="1.000000" fill-rule="evenodd"/>
		<path id="矢量 20" d="M12.84 7.78L12.87 7.78C13.43 7.78 13.88 8.23 13.88 8.79L13.88 11.8C13.88 13.22 12.73 14.37 11.32 14.37L9.22 14.37C9.12 14.37 9.02 14.36 8.92 14.35C8.82 14.34 8.72 14.32 8.62 14.3C8.53 14.27 8.43 14.24 8.33 14.21C8.24 14.17 8.14 14.13 8.05 14.09C7.96 14.04 7.88 13.99 7.8 13.93C7.71 13.88 7.63 13.82 7.55 13.75C7.48 13.69 7.41 13.62 7.34 13.54C7.27 13.47 7.21 13.39 7.15 13.31L5.1 10.49C5.07 10.45 5.03 10.4 5.01 10.35C4.98 10.3 4.96 10.25 4.95 10.19C4.93 10.14 4.92 10.08 4.91 10.03C4.91 9.97 4.91 9.91 4.91 9.86C4.91 9.8 4.92 9.75 4.93 9.69C4.94 9.64 4.96 9.58 4.98 9.53C5 9.48 5.03 9.43 5.06 9.38C5.09 9.33 5.12 9.29 5.16 9.24L5.25 9.14C5.61 8.74 6.22 8.7 6.62 9.06C6.63 9.06 6.64 9.07 6.65 9.08L7.04 9.46C7.06 9.47 7.07 9.48 7.09 9.49C7.11 9.5 7.13 9.5 7.15 9.5C7.17 9.5 7.19 9.5 7.21 9.49C7.23 9.48 7.25 9.47 7.26 9.45C7.28 9.42 7.3 9.39 7.3 9.35L7.3 5.88C7.3 5.33 7.75 4.87 8.31 4.87L8.34 4.87C8.9 4.87 9.35 5.33 9.35 5.88L9.35 6.8C9.5 6.72 9.66 6.69 9.82 6.69L9.85 6.69C10.32 6.69 10.71 7 10.83 7.43C10.98 7.34 11.15 7.29 11.33 7.29L11.36 7.29C11.79 7.29 12.16 7.56 12.3 7.93C12.38 7.88 12.47 7.84 12.56 7.81C12.65 7.79 12.75 7.78 12.84 7.78ZM7.53 13.03C7.58 13.1 7.63 13.16 7.69 13.22C7.75 13.28 7.8 13.33 7.87 13.39C7.93 13.44 8 13.49 8.06 13.54C8.13 13.58 8.2 13.62 8.27 13.66C8.35 13.7 8.42 13.73 8.5 13.76C8.58 13.79 8.66 13.81 8.73 13.83C8.82 13.85 8.89 13.87 8.98 13.87C9.06 13.88 9.14 13.89 9.22 13.89L11.32 13.89C12.47 13.89 13.41 12.95 13.41 11.8L13.41 8.79C13.41 8.49 13.16 8.25 12.87 8.25L12.84 8.25C12.55 8.25 12.3 8.49 12.3 8.79L12.3 9.86C12.3 10.14 11.89 10.14 11.89 9.86L11.89 8.3C11.89 8.01 11.66 7.77 11.36 7.77L11.33 7.77C11.03 7.77 10.8 8.01 10.8 8.3L10.8 9.5C10.8 9.77 10.39 9.77 10.39 9.5L10.39 7.7C10.39 7.4 10.14 7.16 9.85 7.16L9.82 7.16C9.53 7.16 9.29 7.4 9.29 7.7L9.29 9.14C9.29 9.41 8.87 9.41 8.87 9.14L8.87 5.89C8.87 5.59 8.64 5.35 8.34 5.35L8.31 5.35C8.01 5.35 7.78 5.59 7.78 5.88L7.78 9.35C7.78 9.51 7.71 9.67 7.6 9.79C7.36 10.04 6.96 10.04 6.71 9.8L6.32 9.43C6.3 9.4 6.27 9.38 6.24 9.37C6.21 9.35 6.18 9.33 6.15 9.32C6.12 9.31 6.09 9.3 6.06 9.29C6.03 9.29 5.99 9.29 5.96 9.29C5.92 9.29 5.89 9.29 5.86 9.3C5.83 9.31 5.8 9.32 5.77 9.34C5.74 9.35 5.71 9.37 5.68 9.39C5.66 9.41 5.63 9.43 5.61 9.45L5.51 9.56C5.5 9.58 5.48 9.61 5.46 9.63C5.45 9.66 5.43 9.68 5.42 9.71C5.41 9.74 5.4 9.76 5.4 9.79C5.39 9.82 5.39 9.85 5.39 9.88C5.38 9.91 5.39 9.94 5.39 9.97C5.39 10 5.4 10.03 5.41 10.06C5.42 10.08 5.42 10.11 5.44 10.14C5.45 10.16 5.47 10.19 5.48 10.21L7.53 13.03Z" fill="#FFFFFF" fill-opacity="1.000000" fill-rule="evenodd"/>
		<path id="矢量 20" d="M12.87 7.78C13.43 7.78 13.88 8.23 13.88 8.79L13.88 11.8C13.88 13.22 12.73 14.37 11.32 14.37L9.22 14.37C9.12 14.37 9.02 14.36 8.92 14.35C8.82 14.34 8.72 14.32 8.62 14.3C8.53 14.27 8.43 14.24 8.33 14.21C8.24 14.17 8.14 14.13 8.05 14.09C7.96 14.04 7.88 13.99 7.8 13.93C7.71 13.88 7.63 13.82 7.55 13.75C7.48 13.69 7.41 13.62 7.34 13.54C7.27 13.47 7.21 13.39 7.15 13.31L5.1 10.49C5.07 10.45 5.03 10.4 5.01 10.35C4.98 10.3 4.96 10.25 4.95 10.19C4.93 10.14 4.92 10.08 4.91 10.03C4.91 9.97 4.91 9.91 4.91 9.86C4.91 9.8 4.92 9.75 4.93 9.69C4.94 9.64 4.96 9.58 4.98 9.53C5 9.48 5.03 9.43 5.06 9.38C5.09 9.33 5.12 9.29 5.16 9.24L5.25 9.14C5.61 8.74 6.22 8.7 6.62 9.06C6.63 9.06 6.64 9.07 6.65 9.08L7.04 9.46C7.06 9.47 7.07 9.48 7.09 9.49C7.11 9.5 7.13 9.5 7.15 9.5C7.17 9.5 7.19 9.5 7.21 9.49C7.23 9.48 7.25 9.47 7.26 9.45C7.28 9.42 7.3 9.39 7.3 9.35L7.3 5.88C7.3 5.33 7.75 4.87 8.31 4.87L8.34 4.87C8.9 4.87 9.35 5.33 9.35 5.88L9.35 6.8C9.5 6.72 9.66 6.69 9.82 6.69L9.85 6.69C10.32 6.69 10.71 7 10.83 7.43C10.98 7.34 11.15 7.29 11.33 7.29L11.36 7.29C11.79 7.29 12.16 7.56 12.3 7.93C12.38 7.88 12.47 7.84 12.56 7.81C12.65 7.79 12.75 7.78 12.84 7.78L12.87 7.78ZM7.69 13.22C7.75 13.28 7.8 13.33 7.87 13.39C7.93 13.44 8 13.49 8.06 13.54C8.13 13.58 8.2 13.62 8.27 13.66C8.35 13.7 8.42 13.73 8.5 13.76C8.58 13.79 8.66 13.81 8.73 13.83C8.82 13.85 8.89 13.87 8.98 13.87C9.06 13.88 9.14 13.89 9.22 13.89L11.32 13.89C12.47 13.89 13.41 12.95 13.41 11.8L13.41 8.79C13.41 8.49 13.16 8.25 12.87 8.25L12.84 8.25C12.55 8.25 12.3 8.49 12.3 8.79L12.3 9.86C12.3 10.14 11.89 10.14 11.89 9.86L11.89 8.3C11.89 8.01 11.66 7.77 11.36 7.77L11.33 7.77C11.03 7.77 10.8 8.01 10.8 8.3L10.8 9.5C10.8 9.77 10.39 9.77 10.39 9.5L10.39 7.7C10.39 7.4 10.14 7.16 9.85 7.16L9.82 7.16C9.53 7.16 9.29 7.4 9.29 7.7L9.29 9.14C9.29 9.41 8.87 9.41 8.87 9.14L8.87 5.89C8.87 5.59 8.64 5.35 8.34 5.35L8.31 5.35C8.01 5.35 7.78 5.59 7.78 5.88L7.78 9.35C7.78 9.51 7.71 9.67 7.6 9.79C7.36 10.04 6.96 10.04 6.71 9.8L6.32 9.43C6.3 9.4 6.27 9.38 6.24 9.37C6.21 9.35 6.18 9.33 6.15 9.32C6.12 9.31 6.09 9.3 6.06 9.29C6.03 9.29 5.99 9.29 5.96 9.29C5.92 9.29 5.89 9.29 5.86 9.3C5.83 9.31 5.8 9.32 5.77 9.34C5.74 9.35 5.71 9.37 5.68 9.39C5.66 9.41 5.63 9.43 5.61 9.45L5.51 9.56C5.5 9.58 5.48 9.61 5.46 9.63C5.45 9.66 5.43 9.68 5.42 9.71C5.41 9.74 5.4 9.76 5.4 9.79C5.39 9.82 5.39 9.85 5.39 9.88C5.38 9.91 5.39 9.94 5.39 9.97C5.39 10 5.4 10.03 5.41 10.06C5.42 10.08 5.42 10.11 5.44 10.14C5.45 10.16 5.47 10.19 5.48 10.21L7.53 13.03C7.58 13.1 7.63 13.16 7.69 13.22ZM12.84 7.78L12.87 7.78M12.87 7.78C13.43 7.78 13.88 8.23 13.88 8.79M13.88 8.79L13.88 11.8M13.88 11.8C13.88 13.22 12.73 14.37 11.32 14.37M11.32 14.37L9.22 14.37M9.22 14.37C9.12 14.37 9.02 14.36 8.92 14.35M8.92 14.35C8.82 14.34 8.72 14.32 8.62 14.3M8.62 14.3C8.53 14.27 8.43 14.24 8.33 14.21M8.33 14.21C8.24 14.17 8.14 14.13 8.05 14.09M8.05 14.09C7.96 14.04 7.88 13.99 7.8 13.93M7.8 13.93C7.71 13.88 7.63 13.82 7.55 13.75M7.55 13.75C7.48 13.69 7.41 13.62 7.34 13.54M7.34 13.54C7.27 13.47 7.21 13.39 7.15 13.31M7.15 13.31L5.1 10.49M5.1 10.49C5.07 10.45 5.03 10.4 5.01 10.35M5.01 10.35C4.98 10.3 4.96 10.25 4.95 10.19M4.95 10.19C4.93 10.14 4.92 10.08 4.91 10.03M4.91 10.03C4.91 9.97 4.91 9.91 4.91 9.86M4.91 9.86C4.91 9.8 4.92 9.75 4.93 9.69M4.93 9.69C4.94 9.64 4.96 9.58 4.98 9.53M4.98 9.53C5 9.48 5.03 9.43 5.06 9.38M5.06 9.38C5.09 9.33 5.12 9.29 5.16 9.24M5.16 9.24L5.25 9.14M5.25 9.14C5.61 8.74 6.22 8.7 6.62 9.06M6.62 9.06C6.63 9.06 6.64 9.07 6.65 9.08M6.65 9.08L7.04 9.46M7.04 9.46C7.06 9.47 7.07 9.48 7.09 9.49M7.09 9.49C7.11 9.5 7.13 9.5 7.15 9.5M7.15 9.5C7.17 9.5 7.19 9.5 7.21 9.49M7.21 9.49C7.23 9.48 7.25 9.47 7.26 9.45M7.26 9.45C7.28 9.42 7.3 9.39 7.3 9.35M7.3 9.35L7.3 5.88M7.3 5.88C7.3 5.33 7.75 4.87 8.31 4.87M8.31 4.87L8.34 4.87M8.34 4.87C8.9 4.87 9.35 5.33 9.35 5.88M9.35 5.88L9.35 6.8M9.35 6.8C9.5 6.72 9.66 6.69 9.82 6.69M9.82 6.69L9.85 6.69M9.85 6.69C10.32 6.69 10.71 7 10.83 7.43M10.83 7.43C10.98 7.34 11.15 7.29 11.33 7.29M11.33 7.29L11.36 7.29M11.36 7.29C11.79 7.29 12.16 7.56 12.3 7.93M12.3 7.93C12.38 7.88 12.47 7.84 12.56 7.81M12.56 7.81C12.65 7.79 12.75 7.78 12.84 7.78M7.53 13.03C7.58 13.1 7.63 13.16 7.69 13.22M7.69 13.22C7.75 13.28 7.8 13.33 7.87 13.39M7.87 13.39C7.93 13.44 8 13.49 8.06 13.54M8.06 13.54C8.13 13.58 8.2 13.62 8.27 13.66M8.27 13.66C8.35 13.7 8.42 13.73 8.5 13.76M8.5 13.76C8.58 13.79 8.66 13.81 8.73 13.83M8.73 13.83C8.82 13.85 8.89 13.87 8.98 13.87M8.98 13.87C9.06 13.88 9.14 13.89 9.22 13.89M9.22 13.89L11.32 13.89M11.32 13.89C12.47 13.89 13.41 12.95 13.41 11.8M13.41 11.8L13.41 8.79M13.41 8.79C13.41 8.49 13.16 8.25 12.87 8.25M12.87 8.25L12.84 8.25M12.84 8.25C12.55 8.25 12.3 8.49 12.3 8.79M12.3 8.79L12.3 9.86M12.3 9.86C12.3 10.14 11.89 10.14 11.89 9.86M11.89 9.86L11.89 8.3M11.89 8.3C11.89 8.01 11.66 7.77 11.36 7.77M11.36 7.77L11.33 7.77M11.33 7.77C11.03 7.77 10.8 8.01 10.8 8.3M10.8 8.3L10.8 9.5M10.8 9.5C10.8 9.77 10.39 9.77 10.39 9.5M10.39 9.5L10.39 7.7M10.39 7.7C10.39 7.4 10.14 7.16 9.85 7.16M9.85 7.16L9.82 7.16M9.82 7.16C9.53 7.16 9.29 7.4 9.29 7.7M9.29 7.7L9.29 9.14M9.29 9.14C9.29 9.41 8.87 9.41 8.87 9.14M8.87 9.14L8.87 5.89M8.87 5.89C8.87 5.59 8.64 5.35 8.34 5.35M8.34 5.35L8.31 5.35M8.31 5.35C8.01 5.35 7.78 5.59 7.78 5.88M7.78 5.88L7.78 9.35M7.78 9.35C7.78 9.51 7.71 9.67 7.6 9.79M7.6 9.79C7.36 10.04 6.96 10.04 6.71 9.8M6.71 9.8L6.32 9.43M6.32 9.43C6.3 9.4 6.27 9.38 6.24 9.37M6.24 9.37C6.21 9.35 6.18 9.33 6.15 9.32M6.15 9.32C6.12 9.31 6.09 9.3 6.06 9.29M6.06 9.29C6.03 9.29 5.99 9.29 5.96 9.29M5.96 9.29C5.92 9.29 5.89 9.29 5.86 9.3M5.86 9.3C5.83 9.31 5.8 9.32 5.77 9.34M5.77 9.34C5.74 9.35 5.71 9.37 5.68 9.39M5.68 9.39C5.66 9.41 5.63 9.43 5.61 9.45M5.61 9.45L5.51 9.56M5.51 9.56C5.5 9.58 5.48 9.61 5.46 9.63M5.46 9.63C5.45 9.66 5.43 9.68 5.42 9.71M5.42 9.71C5.41 9.74 5.4 9.76 5.4 9.79M5.4 9.79C5.39 9.82 5.39 9.85 5.39 9.88M5.39 9.88C5.38 9.91 5.39 9.94 5.39 9.97M5.39 9.97C5.39 10 5.4 10.03 5.41 10.06M5.41 10.06C5.42 10.08 5.42 10.11 5.44 10.14M5.44 10.14C5.45 10.16 5.47 10.19 5.48 10.21M5.48 10.21L7.53 13.03" stroke="#FFFFFF" stroke-opacity="1.000000" stroke-width="0.200000"/>
	</g>
</svg>
