<svg width="20.000000" height="20.000000" viewBox="0 0 20 20" fill="none" xmlns="http://www.w3.org/2000/svg" xmlns:xlink="http://www.w3.org/1999/xlink">
	<desc>
			Created with Pixso.
	</desc>
	<defs>
		<clipPath id="clip2896_39685">
			<rect id="清除报警" width="20.000000" height="20.000000" fill="white" fill-opacity="0"/>
		</clipPath>
	</defs>
	<g clip-path="url(#clip2896_39685)">
		<path id="矢量 177" d="M10.8 2L10.8 4C10.8 4.44 10.44 4.79 10 4.79C9.55 4.79 9.19 4.44 9.19 4L9.19 2C9.19 1.55 9.55 1.19 10 1.19C10.44 1.19 10.8 1.55 10.8 2ZM5.98 4.84L4.56 3.43C4.25 3.11 3.75 3.11 3.43 3.43C3.11 3.75 3.11 4.24 3.43 4.56L4.84 5.97C5.16 6.29 5.66 6.29 5.98 5.97C6.29 5.66 6.29 5.16 5.98 4.84ZM15.56 5.98L16.98 4.56C17.29 4.25 17.29 3.75 16.98 3.43C16.66 3.11 16.16 3.11 15.84 3.43L14.43 4.84C14.11 5.16 14.11 5.66 14.43 5.98C14.75 6.29 15.25 6.29 15.56 5.98ZM4 12C4 8.68 6.68 6 10 6C13.31 6 16 8.68 16 12L16 16L17 16C17.55 16 18 16.44 18 17C18 17.55 17.55 18 17 18L3 18C2.44 18 2 17.55 2 17C2 16.44 2.44 16 3 16L4 16L4 12Z" fill="#BFBFCF" fill-opacity="1.000000" fill-rule="evenodd"/>
		<path id="矢量 166 (边框)" d="M11.5 7.84C11.72 7.84 11.98 7.89 12.29 7.98C12.66 8.09 12.99 8.25 13.3 8.45C13.63 8.68 13.91 8.95 14.12 9.26C14.16 9.31 14.2 9.37 14.23 9.43C14.29 9.53 14.34 9.62 14.39 9.73C14.56 10.11 14.65 10.53 14.65 11C14.65 11.36 14.36 11.64 14 11.64C13.63 11.64 13.35 11.36 13.35 11C13.35 10.67 13.28 10.38 13.14 10.13C13.01 9.9 12.82 9.7 12.57 9.54C12.37 9.4 12.16 9.3 11.91 9.23C11.73 9.17 11.59 9.14 11.5 9.14C11.13 9.14 10.85 8.86 10.85 8.5C10.85 8.13 11.13 7.84 11.5 7.84Z" fill="#FFFFFF" fill-opacity="1.000000" fill-rule="evenodd"/>
	</g>
</svg>
