<svg width="20.000000" height="20.000000" viewBox="0 0 20 20" fill="none" xmlns="http://www.w3.org/2000/svg" xmlns:xlink="http://www.w3.org/1999/xlink">
	<desc>
			Created with Pixso.
	</desc>
	<defs>
		<clipPath id="clip2842_39573">
			<rect id="画板 157" width="20.000000" height="20.000000" fill="white" fill-opacity="0"/>
		</clipPath>
	</defs>
	<g clip-path="url(#clip2842_39573)">
		<rect id="矩形 810" width="20.000000" height="20.000000" fill="#C4C4C4" fill-opacity="0"/>
		<path id="椭圆 244" d="M14.54 3.37C14.98 3.66 15.38 3.99 15.75 4.36C16.48 5.09 17.04 5.93 17.44 6.88C17.86 7.86 18.07 8.89 18.07 9.97C18.07 11.04 17.86 12.07 17.44 13.05C17.04 14 16.48 14.84 15.75 15.57C15.01 16.3 14.17 16.87 13.23 17.27C12.24 17.69 11.21 17.89 10.14 17.89C9.07 17.89 8.03 17.69 7.05 17.27C6.1 16.87 5.26 16.3 4.53 15.57C3.8 14.84 3.24 14 2.83 13.05C2.42 12.07 2.21 11.04 2.21 9.97C2.21 8.89 2.42 7.86 2.83 6.88C3.24 5.93 3.8 5.09 4.53 4.36C4.9 3.99 5.3 3.66 5.73 3.37L6.66 4.75C6.32 4.98 6 5.24 5.71 5.54C5.13 6.11 4.68 6.78 4.37 7.53C4.03 8.3 3.87 9.12 3.87 9.97C3.87 10.82 4.03 11.63 4.36 12.41C4.68 13.16 5.13 13.82 5.71 14.4C6.29 14.98 6.95 15.42 7.7 15.74C8.48 16.07 9.29 16.23 10.14 16.23C10.99 16.23 11.8 16.07 12.58 15.74C13.33 15.42 13.99 14.98 14.57 14.4C15.15 13.82 15.6 13.16 15.91 12.41C16.24 11.63 16.41 10.82 16.41 9.97C16.41 9.12 16.24 8.3 15.91 7.53C15.6 6.78 15.15 6.11 14.57 5.54C14.28 5.24 13.96 4.98 13.62 4.75L14.54 3.37ZM5.73 3.4L5.73 3.37C6.12 3.12 6.63 3.22 6.89 3.6C7.14 3.99 7.05 4.5 6.66 4.75L6.63 4.75L5.73 3.4ZM13.65 4.75L13.62 4.75C13.23 4.5 13.14 3.99 13.39 3.6C13.65 3.22 14.16 3.12 14.54 3.37L14.55 3.4L13.65 4.75Z" fill="#FFFFFF" fill-opacity="1.000000" fill-rule="evenodd"/>
		<path id="直线 70" d="M10 3L10 9" stroke="#FFFFFF" stroke-opacity="1.000000" stroke-width="1.666667" stroke-linecap="round"/>
	</g>
</svg>
