<svg width="20.000000" height="20.000000" viewBox="0 0 20 20" fill="none" xmlns="http://www.w3.org/2000/svg" xmlns:xlink="http://www.w3.org/1999/xlink">
	<desc>
			Created with Pixso.
	</desc>
	<defs>
		<clipPath id="clip2896_39666">
			<rect id="本体未上电" width="20.000000" height="20.000000" fill="white" fill-opacity="0"/>
		</clipPath>
	</defs>
	<g clip-path="url(#clip2896_39666)">
		<path id="矢量 21" d="M12.14 4.25L13.61 2.39C13.75 2.21 13.99 2.12 14.22 2.18L17 2.85L16.63 4.37L14.46 3.85L13.41 5.18L14.46 6.5L16.63 5.98L17 7.51L14.22 8.17C13.99 8.23 13.75 8.15 13.61 7.96L12.08 6.02L9.94 6.7C10.03 7.01 10.08 7.33 10.08 7.67C10.08 8.63 9.7 9.5 9.08 10.14L11.76 15.5L15.64 15.5C16.11 15.5 16.48 15.86 16.48 16.33C16.48 16.8 16.11 17.16 15.64 17.16L2.83 17.16C2.36 17.16 2 16.8 2 16.33C2 15.86 2.36 15.5 2.83 15.5L3.81 15.5L3.83 9.92C3.32 9.31 3.01 8.53 3.01 7.67C3.01 5.72 4.6 4.14 6.55 4.14C7.55 4.14 8.45 4.55 9.09 5.22L12.14 4.25ZM7.66 11.03C7.31 11.14 6.93 11.2 6.55 11.2C6.18 11.2 5.83 11.15 5.49 11.04L5.48 15.5L9.9 15.5L7.66 11.03ZM6.55 5.81C5.52 5.81 4.68 6.64 4.68 7.67C4.68 8.7 5.52 9.53 6.55 9.53C7.58 9.53 8.41 8.7 8.41 7.67C8.41 6.64 7.58 5.81 6.55 5.81Z" fill="#FFFFFF" fill-opacity="1.000000" fill-rule="evenodd"/>
	</g>
</svg>
