<svg width="20.000000" height="20.000000" viewBox="0 0 20 20" fill="none" xmlns="http://www.w3.org/2000/svg" xmlns:xlink="http://www.w3.org/1999/xlink">
	<desc>
			Created with Pixso.
	</desc>
	<defs>
		<clipPath id="clip4011_58919">
			<rect id="本体未上电" width="20.000000" height="20.000000" fill="white" fill-opacity="0"/>
		</clipPath>
	</defs>
	<rect id="本体未上电" width="20.000000" height="20.000000" fill="#797979" fill-opacity="0"/>
	<g clip-path="url(#clip4011_58919)">
		<path id="矢量 21" d="M10.14 4.56L11.61 2.7C11.75 2.52 11.99 2.43 12.22 2.49L15 3.15L14.63 4.68L12.46 4.16L11.41 5.48L12.46 6.81L14.63 6.29L15 7.82L12.22 8.48C11.99 8.54 11.75 8.45 11.61 8.27L10.08 6.33L7.94 7.01C8.03 7.32 8.08 7.64 8.08 7.98C8.08 8.94 7.7 9.81 7.08 10.44L9.76 15.8L13.64 15.8C14.11 15.8 14.48 16.17 14.48 16.64C14.48 17.11 14.11 17.47 13.64 17.47L0.83 17.47C0.36 17.47 0 17.11 0 16.64C0 16.17 0.36 15.8 0.83 15.8L1.81 15.8L1.83 10.23C1.32 9.62 1.01 8.83 1.01 7.98C1.01 6.03 2.6 4.45 4.55 4.45C5.55 4.45 6.45 4.86 7.09 5.53L10.14 4.56ZM5.66 11.33C5.31 11.45 4.93 11.51 4.55 11.51C4.18 11.51 3.83 11.46 3.49 11.35L3.48 15.8L7.9 15.8L5.66 11.33ZM4.55 6.12C3.52 6.12 2.68 6.95 2.68 7.98C2.68 9.01 3.52 9.84 4.55 9.84C5.58 9.84 6.41 9.01 6.41 7.98C6.41 6.95 5.58 6.12 4.55 6.12Z" fill="#FFFFFF" fill-opacity="1.000000" fill-rule="evenodd"/>
		<path id="矢量 647" d="M18.87 14.69L17.93 15.39L17.93 3.49C17.93 3.22 17.75 3 17.5 3C17.25 3 17.06 3.22 17.06 3.49L17.03 15.39L16.09 14.68C15.91 14.49 15.58 14.49 15.4 14.68C15.31 14.78 15.28 14.9 15.28 15.03C15.28 15.15 15.31 15.27 15.4 15.37L17.24 17.03C17.37 17.15 17.58 17.15 17.72 17.03L19.56 15.37C19.65 15.27 19.68 15.15 19.68 15.03C19.68 14.91 19.65 14.79 19.56 14.69C19.38 14.5 19.05 14.5 18.87 14.69Z" fill="#FFFFFF" fill-opacity="1.000000" fill-rule="evenodd"/>
		<path id="矢量 647" d="M17.93 15.39L17.93 3.49C17.93 3.22 17.75 3 17.5 3C17.25 3 17.06 3.22 17.06 3.49L17.03 15.39L16.09 14.68C15.91 14.49 15.58 14.49 15.4 14.68C15.31 14.78 15.28 14.9 15.28 15.03C15.28 15.15 15.31 15.27 15.4 15.37L17.24 17.03C17.37 17.15 17.58 17.15 17.72 17.03L19.56 15.37C19.65 15.27 19.68 15.15 19.68 15.03C19.68 14.91 19.65 14.79 19.56 14.69C19.38 14.5 19.05 14.5 18.87 14.69L17.93 15.39Z" stroke="#FFFFFF" stroke-opacity="1.000000" stroke-width="0.500000"/>
	</g>
</svg>
