<svg width="20.000000" height="20.000000" viewBox="0 0 20 20" fill="none" xmlns="http://www.w3.org/2000/svg" xmlns:xlink="http://www.w3.org/1999/xlink">
	<desc>
			Created with Pixso.
	</desc>
	<defs>
		<clipPath id="clip2900_41227">
			<rect id="本体上电" width="20.000000" height="20.000000" fill="white" fill-opacity="0"/>
		</clipPath>
	</defs>
	<rect id="本体上电" width="20.000000" height="20.000000" fill="#8C8C8C" fill-opacity="0"/>
	<g clip-path="url(#clip2900_41227)">
		<path id="减去顶层" d="M13.6133 2.39746L12.1406 4.25879L9.09766 5.22559C8.45312 4.55957 7.55078 4.14355 6.55078 4.14355C4.60156 4.14355 3.01953 5.72461 3.01953 7.67578C3.01953 8.53223 3.32422 9.31836 3.83203 9.92969L3.8125 15.501L2.83594 15.501C2.36719 15.501 2 15.8682 2 16.3359C2 16.8027 2.36719 17.1699 2.83594 17.1699L11.9375 17.1699L12.0273 16.1201L9.875 15.501L5.48438 15.501L5.49609 11.0479C5.83203 11.1523 6.18359 11.208 6.55078 11.208C6.9375 11.208 7.3125 11.1465 7.66016 11.0312L9.39453 14.4893C9.42188 14.4473 9.45312 14.4092 9.49219 14.375L10.6523 13.2734L9.08203 10.1416C9.70312 9.50586 10.0859 8.63574 10.0859 7.67578C10.0859 7.33984 10.0391 7.01465 9.94922 6.70605L12.082 6.0293L13.6133 7.9668C13.7578 8.15137 13.9961 8.2334 14.2266 8.17871L17 7.5127L16.6328 5.98828L14.4609 6.50977L13.4102 5.18164L14.4609 3.85449L16.6328 4.37598L17 2.85059L14.2266 2.18457C13.9961 2.12988 13.7578 2.21289 13.6133 2.39746ZM4.6875 7.67578C4.6875 6.64648 5.52344 5.81348 6.55078 5.81348C7.58203 5.81348 8.41406 6.64648 8.41406 7.67578C8.41406 8.70508 7.58203 9.53906 6.55078 9.53906C5.52344 9.53906 4.6875 8.70508 4.6875 7.67578Z" clip-rule="evenodd" fill="#7DD3B0" fill-opacity="1.000000" fill-rule="evenodd"/>
		<path id="矢量 594" d="M16.66 9.59L16 13.78L18.77 13.78L13.37 18.82L13.92 14.76L11.69 14.29L16.66 9.59Z" stroke="#7DD3B0" stroke-opacity="1.000000" stroke-width="1.100000" stroke-linejoin="round"/>
	</g>
</svg>
