<svg width="20.000000" height="20.000000" viewBox="0 0 20 20" fill="none" xmlns="http://www.w3.org/2000/svg" xmlns:xlink="http://www.w3.org/1999/xlink">
	<desc>
			Created with Pixso.
	</desc>
	<defs>
		<clipPath id="clip2195_2699">
			<rect id="icon/搜索" width="20.000000" height="20.000000" fill="white" fill-opacity="0"/>
		</clipPath>
	</defs>
	<g clip-path="url(#clip2195_2699)">
		<path id="Union" d="M13.39 14.81C12.22 15.69 10.77 16.2 9.2 16.2C5.34 16.2 2.2 13.07 2.2 9.2C2.2 5.34 5.34 2.2 9.2 2.2C13.07 2.2 16.2 5.34 16.2 9.2C16.2 10.78 15.68 12.23 14.8 13.4L17.49 16.08C17.88 16.47 17.89 17.1 17.5 17.49C17.11 17.88 16.47 17.89 16.08 17.5L13.39 14.81ZM14.2 9.2C14.2 11.96 11.96 14.2 9.2 14.2C6.44 14.2 4.2 11.96 4.2 9.2C4.2 6.44 6.44 4.2 9.2 4.2C11.96 4.2 14.2 6.44 14.2 9.2Z" fill="#93939E" fill-opacity="1.000000" fill-rule="evenodd"/>
	</g>
</svg>
