<svg width="28.000000" height="28.000000" viewBox="0 0 28 28" fill="none" xmlns="http://www.w3.org/2000/svg" xmlns:xlink="http://www.w3.org/1999/xlink">
	<desc>
			Created with Pixso.
	</desc>
	<defs>
		<linearGradient x1="14.000000" y1="0.000000" x2="14.000000" y2="28.000000" id="paint_linear_2756_45328_0" gradientUnits="userSpaceOnUse">
			<stop stop-color="#91B9FF"/>
			<stop offset="1.000000" stop-color="#295AB0"/>
		</linearGradient>
	</defs>
	<rect id="矩形 22" rx="4.000000" width="28.000000" height="28.000000" fill="url(#paint_linear_2756_45328_0)" fill-opacity="1.000000"/>
	<rect id="画板 35" width="20.000000" height="20.000000" transform="translate(4.000000 24.000000) rotate(-90.000000)" fill="#FFFFFF" fill-opacity="0"/>
	<path id="多边形 1" d="M7.8 16.19L13.36 22.25C13.66 22.58 14.18 22.58 14.49 22.25L20.05 16.19C20.49 15.71 20.15 14.93 19.49 14.93L8.37 14.93C7.71 14.93 7.36 15.71 7.8 16.19Z" fill="#FFFFFF" fill-opacity="1.000000" fill-rule="evenodd"/>
	<path id="矩形 25" d="M11.5 16.02L11.5 8.02C11.5 7.46 11.94 7.02 12.5 7.02L15.5 7.02C16.05 7.02 16.5 7.46 16.5 8.02L16.5 16.02L11.5 16.02Z" fill="#FFFFFF" fill-opacity="1.000000" fill-rule="evenodd"/>
</svg>
