<svg width="28.000000" height="28.000000" viewBox="0 0 28 28" fill="none" xmlns="http://www.w3.org/2000/svg" xmlns:xlink="http://www.w3.org/1999/xlink">
	<desc>
			Created with Pixso.
	</desc>
	<defs>
		<linearGradient x1="14.000000" y1="0.000000" x2="14.000000" y2="28.000000" id="paint_linear_2756_45283_0" gradientUnits="userSpaceOnUse">
			<stop stop-color="#91B9FF"/>
			<stop offset="1.000000" stop-color="#295AB0"/>
		</linearGradient>
	</defs>
	<rect id="矩形 22" rx="4.000000" width="28.000000" height="28.000000" fill="url(#paint_linear_2756_45283_0)" fill-opacity="1.000000"/>
	<path id="G" d="M19.59 20.54C18.62 21.52 16.96 22.25 14.93 22.25C10.99 22.25 8.13 19.5 8.13 14.68C8.13 9.88 11.1 7 14.99 7C17.07 7 18.47 7.91 19.37 8.86L18.11 10.33C17.4 9.59 16.5 9.02 15.08 9.02C12.34 9.02 10.52 11.14 10.52 14.59C10.52 18.09 12.14 20.24 15.17 20.24C16.08 20.24 16.98 19.97 17.49 19.51L17.49 16.05L14.57 16.05L14.57 14.15L19.59 14.15L19.59 20.54Z" fill="#FFFFFF" fill-opacity="1.000000" fill-rule="evenodd"/>
</svg>
