<svg width="28.000000" height="28.000000" viewBox="0 0 28 28" fill="none" xmlns="http://www.w3.org/2000/svg" xmlns:xlink="http://www.w3.org/1999/xlink">
	<desc>
			Created with Pixso.
	</desc>
	<defs>
		<linearGradient x1="14.000000" y1="0.000000" x2="14.000000" y2="28.000000" id="paint_linear_2756_45320_0" gradientUnits="userSpaceOnUse">
			<stop stop-color="#91B9FF"/>
			<stop offset="1.000000" stop-color="#295AB0"/>
		</linearGradient>
	</defs>
	<rect id="矩形 22" rx="4.000000" width="28.000000" height="28.000000" fill="url(#paint_linear_2756_45320_0)" fill-opacity="1.000000"/>
	<rect id="画板 32" width="20.000000" height="20.000000" transform="translate(4.000000 4.000000)" fill="#FFFFFF" fill-opacity="0"/>
	<path id="多边形 1" d="M11.8 7.8L5.74 13.36C5.41 13.66 5.41 14.18 5.74 14.49L11.8 20.05C12.28 20.49 13.06 20.15 13.06 19.49L13.06 8.37C13.06 7.71 12.28 7.36 11.8 7.8Z" fill="#FFFFFF" fill-opacity="1.000000" fill-rule="evenodd"/>
	<path id="矩形 25" d="M11.97 11.5L19.97 11.5C20.53 11.5 20.97 11.94 20.97 12.5L20.97 15.5C20.97 16.05 20.53 16.5 19.97 16.5L11.97 16.5L11.97 11.5Z" fill="#FFFFFF" fill-opacity="1.000000" fill-rule="evenodd"/>
</svg>
