<svg width="28.000000" height="28.000000" viewBox="0 0 28 28" fill="none" xmlns="http://www.w3.org/2000/svg" xmlns:xlink="http://www.w3.org/1999/xlink">
	<desc>
			Created with Pixso.
	</desc>
	<defs>
		<linearGradient x1="14.000000" y1="0.000000" x2="14.000000" y2="28.000000" id="paint_linear_2756_45296_0" gradientUnits="userSpaceOnUse">
			<stop stop-color="#91B9FF"/>
			<stop offset="1.000000" stop-color="#295AB0"/>
		</linearGradient>
	</defs>
	<rect id="矩形 22" rx="4.000000" width="28.000000" height="28.000000" fill="url(#paint_linear_2756_45296_0)" fill-opacity="1.000000"/>
	<rect id="矩形 10" x="2.000000" y="2.000000" width="24.000000" height="24.000000" fill="#C4C4C4" fill-opacity="0"/>
	<path id="减去顶层" d="M8.84375 14.4004L12.8789 14.4004C16.8848 14.4004 20.1348 17.6484 20.1348 21.6562C20.1348 21.8984 20.123 22.1387 20.0996 22.375C21.5156 21.0508 22.4004 19.166 22.4004 17.0742C22.4004 13.0664 19.1504 9.81836 15.1445 9.81836L8.84375 9.81836L8.84375 14.4004Z" clip-rule="evenodd" fill="#FFFFFF" fill-opacity="1.000000" fill-rule="evenodd"/>
	<path id="多边形 1" d="M11 6L4.94 11.56C4.61 11.86 4.61 12.38 4.94 12.69L11 18.25C11.48 18.69 12.26 18.35 12.26 17.69L12.26 6.57C12.26 5.91 11.48 5.56 11 6Z" fill="#FFFFFF" fill-opacity="1.000000" fill-rule="evenodd"/>
</svg>
