<svg width="28.000000" height="28.000000" viewBox="0 0 28 28" fill="none" xmlns="http://www.w3.org/2000/svg" xmlns:xlink="http://www.w3.org/1999/xlink">
	<desc>
			Created with Pixso.
	</desc>
	<defs>
		<linearGradient x1="14.000000" y1="0.000000" x2="14.000000" y2="28.000000" id="paint_linear_2756_45336_0" gradientUnits="userSpaceOnUse">
			<stop stop-color="#91B9FF"/>
			<stop offset="1.000000" stop-color="#295AB0"/>
		</linearGradient>
	</defs>
	<rect id="矩形 22" rx="4.000000" width="28.000000" height="28.000000" fill="url(#paint_linear_2756_45336_0)" fill-opacity="1.000000"/>
	<rect id="画板 33" width="20.000000" height="20.000000" transform="matrix(-1 0 0 1 24 4)" fill="#FFFFFF" fill-opacity="0"/>
	<path id="多边形 1" d="M16.19 7.8L22.25 13.36C22.58 13.66 22.58 14.18 22.25 14.49L16.19 20.05C15.71 20.49 14.93 20.15 14.93 19.49L14.93 8.37C14.93 7.71 15.71 7.36 16.19 7.8Z" fill="#FFFFFF" fill-opacity="1.000000" fill-rule="evenodd"/>
	<path id="矩形 25" d="M16.02 11.5L8.02 11.5C7.46 11.5 7.02 11.94 7.02 12.5L7.02 15.5C7.02 16.05 7.46 16.5 8.02 16.5L16.02 16.5L16.02 11.5Z" fill="#FFFFFF" fill-opacity="1.000000" fill-rule="evenodd"/>
</svg>
