<svg width="28.000000" height="28.000000" viewBox="0 0 28 28" fill="none" xmlns="http://www.w3.org/2000/svg" xmlns:xlink="http://www.w3.org/1999/xlink">
	<desc>
			Created with Pixso.
	</desc>
	<defs>
		<linearGradient x1="14.000000" y1="0.000000" x2="14.000000" y2="28.000000" id="paint_linear_2756_45308_0" gradientUnits="userSpaceOnUse">
			<stop stop-color="#91B9FF"/>
			<stop offset="1.000000" stop-color="#295AB0"/>
		</linearGradient>
	</defs>
	<rect id="矩形 22" rx="4.000000" width="28.000000" height="28.000000" fill="url(#paint_linear_2756_45308_0)" fill-opacity="1.000000"/>
	<rect id="矩形 10" width="24.000000" height="24.000000" transform="matrix(-1 0 0 1 26 2)" fill="#C4C4C4" fill-opacity="0"/>
	<path id="减去顶层" d="M19.1562 14.4004L15.1211 14.4004C11.1152 14.4004 7.86523 17.6484 7.86523 21.6562C7.86523 21.8984 7.87695 22.1387 7.90039 22.375C6.48438 21.0508 5.59961 19.166 5.59961 17.0742C5.59961 13.0664 8.84961 9.81836 12.8555 9.81836L19.1562 9.81836L19.1562 14.4004Z" clip-rule="evenodd" fill="#FFFFFF" fill-opacity="1.000000" fill-rule="evenodd"/>
	<path id="多边形 1" d="M16.99 6L23.05 11.56C23.38 11.86 23.38 12.38 23.05 12.69L16.99 18.25C16.51 18.69 15.73 18.35 15.73 17.69L15.73 6.57C15.73 5.91 16.51 5.56 16.99 6Z" fill="#FFFFFF" fill-opacity="1.000000" fill-rule="evenodd"/>
</svg>
