<svg width="28.000000" height="28.000000" viewBox="0 0 28 28" fill="none" xmlns="http://www.w3.org/2000/svg" xmlns:xlink="http://www.w3.org/1999/xlink">
	<desc>
			Created with Pixso.
	</desc>
	<defs>
		<linearGradient x1="14.000000" y1="0.000000" x2="14.000000" y2="28.000000" id="paint_linear_2756_45344_0" gradientUnits="userSpaceOnUse">
			<stop stop-color="#91B9FF"/>
			<stop offset="1.000000" stop-color="#295AB0"/>
		</linearGradient>
	</defs>
	<rect id="矩形 22" rx="4.000000" width="28.000000" height="28.000000" fill="url(#paint_linear_2756_45344_0)" fill-opacity="1.000000"/>
	<rect id="画板 34" width="20.000000" height="20.000000" transform="matrix(0 1 1 0 4 4)" fill="#FFFFFF" fill-opacity="0"/>
	<path id="多边形 1" d="M7.8 11.8L13.36 5.74C13.66 5.41 14.18 5.41 14.49 5.74L20.05 11.8C20.49 12.28 20.15 13.06 19.49 13.06L8.37 13.06C7.71 13.06 7.36 12.28 7.8 11.8Z" fill="#FFFFFF" fill-opacity="1.000000" fill-rule="evenodd"/>
	<path id="矩形 25" d="M11.5 11.97L11.5 19.97C11.5 20.53 11.94 20.97 12.5 20.97L15.5 20.97C16.05 20.97 16.5 20.53 16.5 19.97L16.5 11.97L11.5 11.97Z" fill="#FFFFFF" fill-opacity="1.000000" fill-rule="evenodd"/>
</svg>
