<svg width="24.000000" height="24.000000" viewBox="0 0 24 24" fill="none" xmlns="http://www.w3.org/2000/svg" xmlns:xlink="http://www.w3.org/1999/xlink">
	<desc>
			Created with Pixso.
	</desc>
	<defs>
		<filter id="filter_4972_67247_dd" x="0.000000" y="0.000000" width="24.000000" height="24.000000" filterUnits="userSpaceOnUse" color-interpolation-filters="sRGB">
			<feFlood flood-opacity="0" result="BackgroundImageFix"/>
			<feColorMatrix in="SourceAlpha" type="matrix" values="0 0 0 0 0 0 0 0 0 0 0 0 0 0 0 0 0 0 127 0" result="hardAlpha"/>
			<feOffset dx="-2" dy="0"/>
			<feGaussianBlur stdDeviation="0.666667"/>
			<feComposite in2="hardAlpha" operator="out" k2="-1" k3="1"/>
			<feColorMatrix type="matrix" values="0 0 0 0 0.23529 0 0 0 0 0.23529 0 0 0 0 0.23529 0 0 0 0.15 0"/>
			<feBlend mode="normal" in2="BackgroundImageFix" result="effect_dropShadow_1"/>
			<feBlend mode="normal" in="SourceGraphic" in2="effect_dropShadow_1" result="shape"/>
		</filter>
		<clipPath id="clip4972_67251">
			<rect id="Frame" width="20.000000" height="20.000000" transform="translate(24.000000 22.000000) rotate(180.000000)" fill="white" fill-opacity="0"/>
		</clipPath>
		<clipPath id="clip4972_67248">
			<rect id="icon/向右箭头" width="20.000000" height="20.000000" transform="matrix(-1 0 0 1 24 2)" fill="white" fill-opacity="0"/>
		</clipPath>
	</defs>
	<g filter="url(#filter_4972_67247_dd)">
		<rect id="Rectangle 4748" rx="4.000000" width="20.000000" height="20.000000" transform="matrix(-1 0 0 1 24 2)" fill="#FFFFFF" fill-opacity="1.000000"/>
	</g>
	<rect id="icon/向右箭头" width="20.000000" height="20.000000" transform="matrix(-1 0 0 1 24 2)" fill="#1F1F1F" fill-opacity="0"/>
	<g clip-path="url(#clip4972_67248)">
		<rect id="Frame" width="20.000000" height="20.000000" transform="translate(24.000000 22.000000) rotate(180.000000)" fill="#FFFFFF" fill-opacity="0"/>
		<g clip-path="url(#clip4972_67251)">
			<path id="Polygon 66" d="M10.3 11.61C10.06 11.82 10.06 12.18 10.3 12.38L17.04 18C17.46 18.34 18.05 17.88 17.81 17.39L15.27 12.22C15.21 12.08 15.21 11.92 15.27 11.78L17.81 6.6C18.05 6.12 17.46 5.66 17.04 6L10.3 11.61Z" fill="#5A5A5E" fill-opacity="1.000000" fill-rule="nonzero"/>
		</g>
	</g>
</svg>
