<svg width="24.000000" height="24.000000" viewBox="0 0 24 24" fill="none" xmlns="http://www.w3.org/2000/svg" xmlns:xlink="http://www.w3.org/1999/xlink">
	<desc>
			Created with Pixso.
	</desc>
	<defs>
		<filter id="filter_4972_67224_dd" x="0.000000" y="0.000000" width="24.000000" height="24.000000" filterUnits="userSpaceOnUse" color-interpolation-filters="sRGB">
			<feFlood flood-opacity="0" result="BackgroundImageFix"/>
			<feColorMatrix in="SourceAlpha" type="matrix" values="0 0 0 0 0 0 0 0 0 0 0 0 0 0 0 0 0 0 127 0" result="hardAlpha"/>
			<feOffset dx="-2" dy="0"/>
			<feGaussianBlur stdDeviation="0.666667"/>
			<feComposite in2="hardAlpha" operator="out" k2="-1" k3="1"/>
			<feColorMatrix type="matrix" values="0 0 0 0 0.23529 0 0 0 0 0.23529 0 0 0 0 0.23529 0 0 0 0.15 0"/>
			<feBlend mode="normal" in2="BackgroundImageFix" result="effect_dropShadow_1"/>
			<feBlend mode="normal" in="SourceGraphic" in2="effect_dropShadow_1" result="shape"/>
		</filter>
		<clipPath id="clip4972_67228">
			<rect id="Frame" width="20.000000" height="20.000000" transform="matrix(1 -2.67189e-24 -2.67189e-24 -1 4 22)" fill="white" fill-opacity="0"/>
		</clipPath>
		<clipPath id="clip4972_67225">
			<rect id="icon/向右箭头" width="20.000000" height="20.000000" transform="translate(4.000000 2.000000)" fill="white" fill-opacity="0"/>
		</clipPath>
	</defs>
	<g filter="url(#filter_4972_67224_dd)">
		<rect id="Rectangle 4748" x="4.000000" y="2.000000" rx="4.000000" width="20.000000" height="20.000000" fill="#FFFFFF" fill-opacity="1.000000"/>
	</g>
	<rect id="icon/向右箭头" width="20.000000" height="20.000000" transform="translate(4.000000 2.000000)" fill="#1F1F1F" fill-opacity="0"/>
	<g clip-path="url(#clip4972_67225)">
		<rect id="Frame" width="20.000000" height="20.000000" transform="matrix(1 -2.67189e-24 -2.67189e-24 -1 4 22)" fill="#FFFFFF" fill-opacity="0"/>
		<g clip-path="url(#clip4972_67228)">
			<path id="Polygon 66" d="M17.69 11.61C17.93 11.82 17.93 12.18 17.69 12.38L10.95 18C10.53 18.34 9.94 17.88 10.18 17.39L12.72 12.22C12.78 12.08 12.78 11.92 12.72 11.78L10.18 6.6C9.94 6.12 10.53 5.66 10.95 6L17.69 11.61Z" fill="#5A5A5E" fill-opacity="1.000000" fill-rule="nonzero"/>
		</g>
	</g>
</svg>
