<svg width="48.000000" height="48.000000" viewBox="0 0 48 48" fill="none" xmlns="http://www.w3.org/2000/svg" xmlns:xlink="http://www.w3.org/1999/xlink">
	<desc>
			Created with Pixso.
	</desc>
	<defs>
		<clipPath id="clip4992_67295">
			<rect id="画板 38013" width="48.000000" height="48.000000" fill="white" fill-opacity="0"/>
		</clipPath>
	</defs>
	<rect id="画板 38013" width="48.000000" height="48.000000" fill="#FFFFFF" fill-opacity="0"/>
	<g clip-path="url(#clip4992_67295)">
		<rect id="矩形 3112" rx="4.000000" width="48.000000" height="48.000000" fill="#FFFFFF" fill-opacity="1.000000"/>
		<path id="矩形 3352" d="M6.1 23L6.1 37C6.1 37.66 6.22 38.3 6.48 38.9C6.73 39.49 7.08 40.01 7.53 40.46C7.98 40.91 8.5 41.26 9.09 41.51C9.69 41.77 10.33 41.89 11 41.89L21 41.89L21 40.1L11 40.1C10.57 40.1 10.17 40.01 9.79 39.85C9.42 39.69 9.09 39.47 8.8 39.19C8.52 38.9 8.3 38.57 8.14 38.2C7.98 37.82 7.89 37.42 7.89 37L7.89 23L6.1 23ZM20.98 41.87L21 41.89C21.5 41.89 21.9 41.5 21.9 41C21.9 40.49 21.5 40.1 21 40.1L20.98 40.12L20.98 41.87ZM7.88 23.01L7.89 23C7.89 22.49 7.5 22.1 7 22.1C6.49 22.1 6.1 22.49 6.1 23L6.12 23.01L7.88 23.01Z" fill="#0F0F1D" fill-opacity="1.000000" fill-rule="evenodd"/>
		<path id="矩形 3354" d="M41.9 21L41.9 11C41.9 10.33 41.77 9.69 41.51 9.09C41.26 8.5 40.91 7.98 40.46 7.53C40.01 7.08 39.49 6.73 38.9 6.48C38.3 6.22 37.66 6.1 37 6.1L23 6.1L23 7.89L37 7.89C37.42 7.89 37.82 7.98 38.2 8.14C38.57 8.3 38.9 8.52 39.19 8.8C39.47 9.09 39.69 9.42 39.85 9.79C40.01 10.17 40.09 10.57 40.09 11L40.09 21L41.9 21ZM23.02 6.12L23 6.1C22.49 6.1 22.1 6.49 22.1 7C22.1 7.5 22.49 7.89 23 7.89L23.02 7.87L23.02 6.12ZM40.12 20.98L40.09 21C40.09 21.5 40.49 21.89 41 21.89C41.5 21.89 41.9 21.5 41.9 21L41.88 20.98L40.12 20.98Z" fill="#0F0F1D" fill-opacity="1.000000" fill-rule="evenodd"/>
		<path id="中" d="M12.68 13.75L12.68 10.04L16.55 10.04L16.55 13.75L12.68 13.75ZM7.38 13.75L7.38 10.04L11.24 10.04L11.24 13.75L7.38 13.75ZM12.68 8.65L12.68 6L11.24 6L11.24 8.65L6 8.65L6 16.04L7.38 16.04L7.38 15.14L11.24 15.14L11.24 20L12.68 20L12.68 15.14L16.55 15.14L16.55 15.97L18 15.97L18 8.65L12.68 8.65Z" fill="#5A5A5E" fill-opacity="1.000000" fill-rule="nonzero"/>
		<path id="英" d="M28.55 29.18L30.33 29.18L30.33 27.28L35.46 27.28L35.46 29.18L37.26 29.18L37.26 27.28L41.24 27.28L41.24 25.66L37.26 25.66L37.26 24L35.46 24L35.46 25.66L30.33 25.66L30.33 24L28.55 24L28.55 25.66L24.6 25.66L24.6 27.28L28.55 27.28L28.55 29.18ZM28.04 34.83L28.04 31.91L31.92 31.91L31.92 33.71C31.92 34.08 31.9 34.45 31.86 34.83L28.04 34.83ZM37.88 31.91L37.88 34.83L33.74 34.83C33.78 34.45 33.8 34.1 33.8 33.73L33.8 31.91L37.88 31.91ZM41.51 36.51L41.51 34.83L39.71 34.83L39.71 30.32L33.8 30.32L33.8 28.2L31.92 28.2L31.92 30.32L26.32 30.32L26.32 34.83L24.38 34.83L24.38 36.51L31.34 36.51C30.49 38.1 28.53 39.51 24 40.46C24.4 40.86 24.9 41.6 25.12 42C29.8 40.88 32.06 39.21 33.06 37.28C34.63 39.88 37.13 41.37 40.87 42C41.1 41.48 41.59 40.72 42 40.31C38.41 39.86 35.91 38.64 34.5 36.51L41.51 36.51Z" fill="#0F0F1D" fill-opacity="1.000000" fill-rule="nonzero"/>
	</g>
</svg>
