<svg width="48.000000" height="48.000000" viewBox="0 0 48 48" fill="none" xmlns="http://www.w3.org/2000/svg" xmlns:xlink="http://www.w3.org/1999/xlink">
	<desc>
			Created with Pixso.
	</desc>
	<defs>
		<clipPath id="clip4992_67297">
			<rect id="画板 38014" width="48.000000" height="48.000000" fill="white" fill-opacity="0"/>
		</clipPath>
	</defs>
	<rect id="画板 38014" width="48.000000" height="48.000000" fill="#FFFFFF" fill-opacity="0"/>
	<g clip-path="url(#clip4992_67297)">
		<rect id="矩形 3112" rx="4.000000" width="48.000000" height="48.000000" fill="#FFFFFF" fill-opacity="1.000000"/>
		<path id="矩形 3352" d="M6.1 27L6.1 37Q6.1 37.99 6.48 38.9Q6.85 39.78 7.53 40.46Q8.21 41.14 9.09 41.51Q10 41.89 11 41.89L25 41.89L25 40.1L11 40.1Q10.36 40.1 9.79 39.85Q9.23 39.62 8.8 39.19Q8.37 38.76 8.14 38.2Q7.89 37.63 7.89 37L7.89 27L6.1 27ZM24.98 41.87L25 41.89C25.5 41.89 25.9 41.5 25.9 41C25.9 40.49 25.5 40.1 25 40.1L24.98 40.12L24.98 41.87ZM7.88 27.01L7.89 27C7.89 26.49 7.5 26.1 7 26.1C6.49 26.1 6.1 26.49 6.1 27L6.12 27.01L7.88 27.01Z" fill="#0F0F1D" fill-opacity="1.000000" fill-rule="evenodd"/>
		<path id="矩形 3354" d="M41.9 25L41.9 11Q41.9 10 41.51 9.09Q41.14 8.21 40.46 7.53Q39.78 6.85 38.9 6.48Q37.99 6.1 37 6.1L27 6.1L27 7.89L37 7.89Q37.63 7.89 38.2 8.14Q38.76 8.37 39.19 8.8Q39.62 9.23 39.85 9.79Q40.09 10.36 40.09 11L40.09 25L41.9 25ZM27.02 6.12L27 6.1C26.49 6.1 26.1 6.49 26.1 7C26.1 7.5 26.49 7.89 27 7.89L27.02 7.87L27.02 6.12ZM40.12 24.98L40.09 25C40.09 25.5 40.49 25.89 41 25.89C41.5 25.89 41.9 25.5 41.9 25L41.88 24.98L40.12 24.98Z" fill="#0F0F1D" fill-opacity="1.000000" fill-rule="evenodd"/>
		<path id="英" d="M31.53 32.03L32.92 32.03L32.92 30.55L36.91 30.55L36.91 32.03L38.32 32.03L38.32 30.55L41.41 30.55L41.41 29.29L38.32 29.29L38.32 28L36.91 28L36.91 29.29L32.92 29.29L32.92 28L31.53 28L31.53 29.29L28.46 29.29L28.46 30.55L31.53 30.55L31.53 32.03ZM31.14 36.42L31.14 34.15L34.16 34.15L34.16 35.55C34.16 35.84 34.14 36.13 34.11 36.42L31.14 36.42ZM38.8 34.15L38.8 36.42L35.57 36.42C35.6 36.13 35.62 35.85 35.62 35.57L35.62 34.15L38.8 34.15ZM41.62 37.73L41.62 36.42L40.21 36.42L40.21 32.92L35.62 32.92L35.62 31.27L34.16 31.27L34.16 32.92L29.8 32.92L29.8 36.42L28.3 36.42L28.3 37.73L33.71 37.73C33.04 38.96 31.52 40.06 28 40.8C28.31 41.11 28.7 41.69 28.87 42C32.51 41.12 34.26 39.83 35.05 38.32C36.27 40.35 38.21 41.51 41.12 42C41.3 41.6 41.68 41.01 42 40.69C39.21 40.33 37.26 39.39 36.16 37.73L41.62 37.73Z" fill="#5A5A5E" fill-opacity="1.000000" fill-rule="nonzero"/>
		<path id="中" d="M16.02 17.09L16.02 11.79L21.83 11.79L21.83 17.09L16.02 17.09ZM8.07 17.09L8.07 11.79L13.86 11.79L13.86 17.09L8.07 17.09ZM16.02 9.8L16.02 6L13.86 6L13.86 9.8L6 9.8L6 20.37L8.07 20.37L8.07 19.08L13.86 19.08L13.86 26.04L16.02 26.04L16.02 19.08L21.83 19.08L21.83 20.26L24 20.26L24 9.8L16.02 9.8Z" fill="#0F0F1D" fill-opacity="1.000000" fill-rule="nonzero"/>
	</g>
</svg>
