<svg width="20.000000" height="20.000000" viewBox="0 0 20 20" fill="none" xmlns="http://www.w3.org/2000/svg" xmlns:xlink="http://www.w3.org/1999/xlink">
	<desc>
			Created with Pixso.
	</desc>
	<defs>
		<clipPath id="clip1067_7252">
			<rect id="icon/关闭" width="20.000000" height="20.000000" fill="white" fill-opacity="0"/>
		</clipPath>
	</defs>
	<g clip-path="url(#clip1067_7252)">
		<path id="Vector 567 (Stroke)" d="M8.58 10L4 5.41C3.6 5.02 3.6 4.39 4 4C4.39 3.6 5.02 3.6 5.41 4L10 8.58L14.58 4C14.97 3.6 15.6 3.6 16 4C16.39 4.39 16.39 5.02 16 5.41L11.41 10L16 14.58C16.39 14.97 16.39 15.6 16 16C15.6 16.39 14.97 16.39 14.58 16L10 11.41L5.41 16C5.02 16.39 4.39 16.39 4 16C3.6 15.6 3.6 14.97 4 14.58L8.58 10Z" fill="#404044" fill-opacity="1.000000" fill-rule="evenodd"/>
	</g>
</svg>
