<svg width="20.000000" height="20.000000" viewBox="0 0 20 20" fill="none" xmlns="http://www.w3.org/2000/svg" xmlns:xlink="http://www.w3.org/1999/xlink">
	<desc>
			Created with Pixso.
	</desc>
	<defs>
		<clipPath id="clip1058_12398">
			<rect id="Frame 427319596" width="20.000000" height="20.000000" fill="white" fill-opacity="0"/>
		</clipPath>
	</defs>
	<g clip-path="url(#clip1058_12398)">
		<path id="Star 1" d="M9.14 2.53C9.49 1.82 10.5 1.82 10.85 2.53L12.58 6.04C12.72 6.32 12.99 6.51 13.3 6.56L17.18 7.12C17.96 7.24 18.27 8.2 17.71 8.75L14.9 11.48C14.68 11.7 14.58 12.02 14.63 12.33L15.29 16.18C15.42 16.97 14.6 17.56 13.9 17.19L10.44 15.37C10.16 15.23 9.83 15.23 9.55 15.37L6.09 17.19C5.39 17.56 4.57 16.97 4.7 16.18L5.36 12.33C5.41 12.02 5.31 11.7 5.09 11.48L2.29 8.75C1.72 8.2 2.03 7.24 2.82 7.12L6.69 6.56C7 6.51 7.27 6.32 7.41 6.04L9.14 2.53Z" fill="#295AB0" fill-opacity="1.000000" fill-rule="nonzero"/>
	</g>
</svg>
