<svg width="20.000000" height="20.000000" viewBox="0 0 20 20" fill="none" xmlns="http://www.w3.org/2000/svg" xmlns:xlink="http://www.w3.org/1999/xlink">
	<desc>
			Created with Pixso.
	</desc>
	<defs>
		<clipPath id="clip1146_5128">
			<rect id="Frame 427319596" width="20.000000" height="20.000000" fill="white" fill-opacity="0"/>
		</clipPath>
	</defs>
	<g clip-path="url(#clip1146_5128)">
		<path id="Star 1" d="M9.14 2.53C9.49 1.82 10.5 1.82 10.85 2.53L12.58 6.04C12.72 6.32 12.99 6.51 13.3 6.56L17.18 7.12C17.96 7.24 18.27 8.2 17.71 8.75L14.9 11.48C14.68 11.7 14.58 12.02 14.63 12.33L15.29 16.18C15.42 16.97 14.6 17.56 13.9 17.19L10.44 15.37C10.16 15.23 9.83 15.23 9.55 15.37L6.09 17.19C5.39 17.56 4.57 16.97 4.7 16.18L5.36 12.33C5.41 12.02 5.31 11.7 5.09 11.48L2.29 8.75C1.72 8.2 2.03 7.24 2.82 7.12L6.69 6.56C7 6.51 7.27 6.32 7.41 6.04L9.14 2.53ZM10 5.31L10.79 6.92C10.9 7.14 11.03 7.34 11.18 7.52C11.33 7.7 11.51 7.86 11.7 8C11.9 8.15 12.11 8.26 12.33 8.35C12.55 8.44 12.78 8.5 13.02 8.54L14.8 8.8L13.51 10.05C13.33 10.22 13.18 10.41 13.06 10.61C12.94 10.81 12.84 11.02 12.76 11.25C12.68 11.49 12.64 11.72 12.62 11.96C12.6 12.19 12.62 12.43 12.66 12.67L12.96 14.44L11.37 13.6C11.16 13.49 10.93 13.41 10.7 13.35C10.47 13.29 10.24 13.26 10 13.26C9.75 13.26 9.52 13.29 9.29 13.35C9.06 13.41 8.83 13.49 8.62 13.6L7.03 14.44L7.33 12.67C7.37 12.43 7.39 12.19 7.37 11.96C7.35 11.72 7.31 11.49 7.23 11.25C7.15 11.02 7.06 10.81 6.93 10.61C6.81 10.41 6.66 10.22 6.48 10.05L5.19 8.8L6.97 8.54C7.21 8.5 7.44 8.44 7.66 8.35C7.88 8.26 8.09 8.15 8.29 8C8.48 7.86 8.66 7.7 8.81 7.52C8.96 7.34 9.09 7.14 9.2 6.92L10 5.31Z" fill="#93939E" fill-opacity="1.000000" fill-rule="evenodd"/>
	</g>
</svg>
